<svg width="136" height="154" viewBox="0 0 136 154" fill="none" xmlns="http://www.w3.org/2000/svg">
<g id="Group 787">
<g id="Character">
<g id="Group">
<path id="Vector" d="M81.4971 131.147V143.248H77.9521L85.5937 153.686L92.7622 143.462H89.1386V131.147H81.4971Z" fill="#C9CEDD"/>
<path id="Vector_2" d="M95.0175 39.9922V44.2524H93.7695L96.4599 47.927L98.9835 44.3275H97.7079V39.9922H95.0175Z" fill="#C9CEDD"/>
<path id="Vector_3" d="M127.27 79.5068V88.253H124.708L130.231 95.7973L135.413 88.4076H132.793V79.5068H127.27Z" fill="#C9CEDD"/>
<path id="Vector_4" d="M9.1387 114.855V123.602H6.57617L12.0993 131.146L17.2809 123.757H14.6618V114.855H9.1387Z" fill="#C9CEDD"/>
<path id="Vector_5" d="M55.0092 129.154V135.681H53.0967L57.2188 141.312L61.0862 135.797H59.1314V129.154H55.0092Z" fill="#C9CEDD"/>
<g id="Group_2">
<g id="Group_3">
<g id="Group_4">
<path id="Vector_6" d="M42.5527 22.3812C42.8133 20.1609 40.1407 18.334 38.1324 18.1444C37.1745 18.0539 36.18 18.2257 35.2726 17.8548C33.3068 17.0515 32.5216 14.0737 30.6034 13.1249C29.1695 12.4157 27.5184 13.0469 26.1283 13.8673C24.7382 14.6878 23.3643 15.7201 21.8112 15.8368C20.4603 15.9382 18.9931 15.3508 17.811 16.1245C16.9303 16.7011 16.4688 17.8913 15.6571 18.5932C14.8628 19.2802 13.827 19.4257 12.8414 19.4885C11.8559 19.5515 10.8359 19.5632 9.93839 20.0449C9.04088 20.5266 8.29887 21.6392 8.48484 22.7758L42.5527 22.3812Z" fill="#D7DBE6"/>
</g>
</g>
</g>
<g id="Group_5">
<g id="Group_6">
<g id="Group_7">
<path id="Vector_7" d="M135.921 63.8115C136.147 61.8799 133.822 60.2908 132.075 60.1256C131.242 60.0468 130.377 60.1963 129.587 59.8736C127.877 59.1746 127.194 56.5844 125.525 55.7592C124.278 55.1422 122.842 55.6914 121.633 56.405C120.423 57.1186 119.228 58.0168 117.877 58.1182C116.702 58.2064 115.426 57.6952 114.397 58.3687C113.631 58.8704 113.23 59.9053 112.524 60.5165C111.833 61.1141 110.932 61.2403 110.074 61.295C109.217 61.3497 108.33 61.3599 107.549 61.7789C106.769 62.1979 106.123 63.1657 106.285 64.1542L135.921 63.8115Z" fill="#D7DBE6"/>
</g>
</g>
</g>
<g id="Group_8">
<g id="Group_9">
<g id="Group_10">
<path id="Vector_8" d="M59.7916 4.99442C59.9026 4.04997 58.7657 3.27253 57.9111 3.19194C57.5037 3.15329 57.0804 3.22658 56.6945 3.06869C55.8583 2.72701 55.5243 1.46021 54.7082 1.05654C54.0981 0.754974 53.3959 1.02336 52.8044 1.37233C52.2129 1.7213 51.6285 2.16071 50.9677 2.2103C50.393 2.25333 49.7688 2.00354 49.266 2.33282C48.8912 2.57823 48.695 3.08437 48.3495 3.38302C48.0118 3.67511 47.5708 3.7371 47.1516 3.76372C46.7324 3.79034 46.2982 3.79544 45.9167 4.00038C45.5351 4.20531 45.2191 4.67863 45.2984 5.16216L59.7916 4.99442Z" fill="#D7DBE6"/>
</g>
</g>
</g>
<g id="Group_11">
<g id="Group_12">
<g id="Group_13">
<path id="Vector_9" d="M134.425 144.898C134.629 143.161 132.538 141.733 130.968 141.584C130.219 141.514 129.44 141.648 128.731 141.358C127.193 140.73 126.579 138.4 125.079 137.658C123.957 137.104 122.666 137.598 121.579 138.239C120.491 138.881 119.417 139.688 118.202 139.78C117.145 139.859 115.997 139.399 115.073 140.005C114.384 140.456 114.023 141.386 113.388 141.935C112.767 142.473 111.957 142.586 111.186 142.636C110.415 142.685 109.617 142.694 108.915 143.071C108.213 143.447 107.633 144.318 107.778 145.206L134.425 144.898Z" fill="#D7DBE6"/>
</g>
</g>
</g>
<g id="Group_14">
<g id="Group_15">
<g id="Group_16">
<path id="Vector_10" d="M56.3281 39.3471L53.9295 34.3904C54.9906 32.3706 55.6039 29.9931 55.6039 27.4467C55.6039 20.1242 50.5413 14.188 44.2967 14.188C38.0518 14.188 32.9893 20.1242 32.9893 27.4467C32.9893 34.7693 38.0518 40.7051 44.2967 40.7051C46.9043 40.7051 49.3039 39.6673 51.2168 37.9286L51.213 37.9345L56.3281 39.3471Z" fill="#FAFAFA"/>
<g id="Group_17">
<path id="Vector_11" d="M56.3281 39.3477C56.0479 39.273 54.4507 38.8471 51.2033 37.9814L51.1427 37.9653L51.1806 37.9066L51.1844 37.9008L51.241 37.9668C49.9622 39.1417 48.1215 40.2856 45.8111 40.6536C45.2364 40.74 44.6359 40.7954 44.0189 40.7604C43.7107 40.74 43.3967 40.7312 43.0801 40.7002C42.7657 40.6444 42.4466 40.5883 42.1235 40.531C40.8419 40.2346 39.5311 39.6646 38.3086 38.7752C37.0867 37.8891 35.9554 36.6858 35.0482 35.2071C34.1426 33.731 33.456 31.9807 33.1344 30.0787C32.816 28.1792 32.8424 26.1433 33.2678 24.1728C33.6961 22.2091 34.4965 20.2907 35.6945 18.7125C36.9067 17.1003 38.4053 15.8098 40.057 15.0605C41.7018 14.2951 43.4557 14.0037 45.1323 14.1463C46.8094 14.2881 48.4138 14.8526 49.7902 15.7613C51.171 16.6628 52.3353 17.8665 53.2335 19.2106C54.1347 20.5554 54.7694 22.0388 55.1625 23.5157C55.5528 24.9994 55.6582 26.4708 55.6532 27.8328C55.5867 30.576 54.8021 32.8289 53.9615 34.4144L53.9621 34.3681C55.4666 37.534 56.1943 39.0662 56.3281 39.3477C56.1906 39.0688 55.4421 37.5504 53.8955 34.4133L53.884 34.3903L53.8962 34.367C54.7206 32.7844 55.4862 30.5461 55.5419 27.8295C55.5413 26.4806 55.4324 25.0253 55.0421 23.5598C54.6494 22.1012 54.0181 20.6375 53.1249 19.3116C52.2346 17.9864 51.0827 16.801 49.7187 15.9141C48.3587 15.02 46.7755 14.4665 45.1211 14.329C43.4669 14.1904 41.7379 14.4796 40.117 15.2355C38.489 15.975 37.0124 17.2484 35.817 18.8375C34.6356 20.3931 33.8469 22.2842 33.4233 24.2194C33.0029 26.1616 32.9752 28.1697 33.2874 30.0433C33.6025 31.9194 34.2779 33.6471 35.1692 35.1057C36.062 36.5669 37.1769 37.7579 38.382 38.6367C39.5877 39.5184 40.8811 40.0865 42.1477 40.3845C42.4671 40.4424 42.7821 40.4993 43.0931 40.5555C43.4063 40.5872 43.7167 40.597 44.0217 40.6186C44.6322 40.6561 45.2268 40.6036 45.7959 40.5212C48.0841 40.1682 49.9143 39.0473 51.1915 37.8921L51.4397 37.6674L51.2484 37.9581L51.2447 37.9639L51.222 37.8891C54.4578 38.8135 56.0491 39.2683 56.3281 39.3477Z" fill="#1D191F"/>
</g>
</g>
</g>
<g id="Group_18">
<path id="Vector_12" d="M47.6038 34.7515H40.2754C39.9222 34.7515 39.6357 34.4157 39.6357 34.0015V21.3014C39.6357 20.8871 39.9222 20.5513 40.2754 20.5513H47.6038C47.9571 20.5513 48.2435 20.8871 48.2435 21.3014V34.0015C48.2435 34.4157 47.9571 34.7515 47.6038 34.7515Z" fill="#1D191F"/>
<path id="Vector_13" d="M47.8052 21.4048H40.0361V32.0172H47.8052V21.4048Z" fill="#FAFAFA"/>
<path id="Vector_14" d="M43.9402 34.1382C44.3004 34.1382 44.5924 33.7959 44.5924 33.3736C44.5924 32.9512 44.3004 32.6089 43.9402 32.6089C43.5801 32.6089 43.2881 32.9512 43.2881 33.3736C43.2881 33.7959 43.5801 34.1382 43.9402 34.1382Z" fill="#7B72F6"/>
<path id="Vector_15" d="M45.0293 24.6373L47.895 28.6043L50.5813 24.6373H49.1884V19.1773L46.4023 19.1372L46.4356 24.6456L45.0293 24.6373Z" fill="#7DEAED"/>
<g id="Group_19">
<path id="Vector_16" d="M45.2054 26.1298C45.2378 26.1659 44.6917 26.8989 43.9858 27.7664C43.2795 28.6342 42.6812 29.3081 42.6488 29.272C42.6165 29.2359 43.1626 28.5033 43.8685 27.6354C44.5748 26.7679 45.1731 26.0937 45.2054 26.1298Z" fill="#1D191F"/>
</g>
<g id="Group_20">
<path id="Vector_17" d="M44.6424 25.6524C44.6691 25.6943 44.3662 26.1027 43.9653 26.564C43.5645 27.0253 43.2137 27.3692 43.182 27.3323C43.1502 27.2955 43.4531 26.8875 43.859 26.4207C44.2648 25.9543 44.6156 25.6105 44.6424 25.6524Z" fill="#1D191F"/>
</g>
</g>
</g>
<g id="Group_21">
<g id="Group_22">
<g id="Group_23">
<path id="Vector_18" d="M115.356 24.3896V30.5563H113.55L117.444 35.8758L121.097 30.6653H119.25V24.3896H115.356Z" fill="#7DEAED"/>
<path id="Vector_19" opacity="0.3" d="M115.356 24.3896V30.5563H113.55L117.444 35.8758L121.097 30.6653H119.25V24.3896H115.356Z" fill="#1D191F"/>
</g>
<path id="Vector_20" d="M128.057 10.6313C126.892 5.33836 122.805 1.42236 117.927 1.42236C114.62 1.42236 111.675 3.22447 109.756 6.03193C109.425 5.98707 109.09 5.95827 108.748 5.95827C103.944 5.95827 100.049 10.5252 100.049 16.1587C100.049 21.7922 103.944 26.3591 108.748 26.3591H127.69C131.398 26.3591 134.405 22.8336 134.405 18.4844C134.406 14.2807 131.594 10.8563 128.057 10.6313Z" fill="#7DEAED"/>
<g id="Group_24">
<path id="Vector_21" d="M130.059 23.6104C130.042 23.582 130.419 23.3059 130.918 22.7199C131.416 22.1401 132.019 21.2114 132.384 20.0255C132.75 18.8393 132.793 17.6731 132.726 16.8534C132.662 16.0286 132.523 15.5341 132.552 15.525C132.561 15.5213 132.606 15.6406 132.665 15.8652C132.725 16.0895 132.793 16.4213 132.84 16.8388C132.938 17.6691 132.913 18.8699 132.537 20.0897C132.161 21.3095 131.525 22.251 130.997 22.8162C130.733 23.1021 130.5 23.3063 130.332 23.4335C130.164 23.5615 130.064 23.6203 130.059 23.6104Z" fill="#1D191F"/>
</g>
<g id="Group_25">
<path id="Vector_22" d="M109.996 9.01461C109.99 9.04962 109.516 8.90777 108.737 8.88662C107.963 8.86182 106.872 9.00404 105.785 9.56195C104.697 10.1195 103.868 10.9626 103.358 11.6459C102.843 12.3311 102.61 12.8354 102.584 12.8165C102.575 12.8106 102.625 12.6797 102.735 12.4555C102.844 12.2308 103.02 11.9172 103.271 11.5584C103.766 10.8412 104.604 9.95942 105.72 9.38765C106.835 8.81551 107.956 8.69189 108.741 8.75206C109.136 8.77977 109.452 8.84067 109.667 8.89902C109.883 8.95699 109.998 9.00331 109.996 9.01461Z" fill="#1D191F"/>
</g>
<g id="Group_26">
<path id="Vector_23" d="M115.871 3.97725C115.873 4.01225 115.526 4.03778 114.99 4.20333C114.455 4.36597 113.737 4.70509 113.052 5.28489C112.37 5.8687 111.873 6.56482 111.575 7.11107C111.276 7.65731 111.147 8.03655 111.119 8.02342C111.109 8.01868 111.134 7.92096 111.188 7.74738C111.24 7.57235 111.337 7.32876 111.478 7.04105C111.616 6.75152 111.813 6.42807 112.057 6.09441C112.307 5.76696 112.608 5.43257 112.957 5.13137C113.309 4.83527 113.673 4.60299 114.016 4.42613C114.362 4.25693 114.686 4.13769 114.963 4.07315C115.24 4.00569 115.468 3.97178 115.626 3.96886C115.784 3.96157 115.87 3.96412 115.871 3.97725Z" fill="#1D191F"/>
</g>
<g id="Group_27">
<path id="Vector_24" d="M124.017 26.273C124.017 26.3255 121.46 26.3678 118.305 26.3678C115.149 26.3678 112.592 26.3252 112.592 26.273C112.592 26.2209 115.149 26.1782 118.305 26.1782C121.46 26.1782 124.017 26.2205 124.017 26.273Z" fill="#1D191F"/>
</g>
</g>
<g id="Group_28">
<path id="Vector_25" d="M124.658 44.6451C124.613 44.6451 124.577 42.1884 124.577 39.1589C124.577 36.1283 124.614 33.6724 124.658 33.6724C124.703 33.6724 124.739 36.1283 124.739 39.1589C124.739 42.1884 124.703 44.6451 124.658 44.6451Z" fill="#1D191F"/>
</g>
<g id="Group_29">
<path id="Vector_26" d="M126.487 49.4384C126.442 49.4384 126.406 46.2758 126.406 42.3758C126.406 38.4744 126.443 35.3125 126.487 35.3125C126.532 35.3125 126.568 38.4744 126.568 42.3758C126.568 46.2758 126.532 49.4384 126.487 49.4384Z" fill="#1D191F"/>
</g>
</g>
<g id="Group_30">
<g id="Group_31">
<g id="Group_32">
<path id="Vector_27" d="M9.56285 55.7065V59.4843H8.45605L10.8419 62.7432L13.0801 59.5514H11.9487V55.7065H9.56285Z" fill="#7DEAED"/>
<path id="Vector_28" opacity="0.3" d="M9.56285 55.7065V59.4843H8.45605L10.8419 62.7432L13.0801 59.5514H11.9487V55.7065H9.56285Z" fill="#1D191F"/>
</g>
<path id="Vector_29" d="M17.3445 47.2782C16.6308 44.0354 14.1271 41.6367 11.1385 41.6367C9.11209 41.6367 7.30806 42.7409 6.13222 44.4606C5.92946 44.4332 5.72421 44.4154 5.51492 44.4154C2.57143 44.4154 0.185547 47.2133 0.185547 50.6644C0.185547 54.1158 2.57174 56.9134 5.51492 56.9134H17.1194C19.3917 56.9134 21.2337 54.7536 21.2337 52.0891C21.2337 49.5139 19.5115 47.4161 17.3445 47.2782Z" fill="#7DEAED"/>
<g id="Group_33">
<path id="Vector_30" d="M18.571 55.2293C18.5558 55.2031 18.7816 55.0266 19.0817 54.6649C19.3815 54.3068 19.7444 53.7405 19.9661 53.0203C20.1882 52.3001 20.218 51.5923 20.1829 51.0924C20.1496 50.5895 20.0722 50.2843 20.098 50.2755C20.1145 50.2679 20.2323 50.5622 20.2967 51.0778C20.3626 51.5886 20.3511 52.3307 20.1185 53.0848C19.8862 53.8385 19.4906 54.418 19.1613 54.7615C18.8304 55.1097 18.5794 55.2476 18.571 55.2293Z" fill="#1D191F"/>
</g>
<g id="Group_34">
<path id="Vector_31" d="M6.27908 46.2877C6.27348 46.3191 5.98178 46.2414 5.50721 46.2352C5.03514 46.2269 4.37274 46.3177 3.7122 46.6568C3.05136 46.9955 2.54476 47.5046 2.22973 47.9167C1.91128 48.3294 1.76201 48.6332 1.73868 48.6168C1.72313 48.608 1.83789 48.2769 2.14265 47.8291C2.44338 47.3832 2.95868 46.8355 3.6472 46.4825C4.33542 46.1291 5.02829 46.0573 5.51157 46.1007C5.99888 46.1426 6.28437 46.2684 6.27908 46.2877Z" fill="#1D191F"/>
</g>
<g id="Group_35">
<path id="Vector_32" d="M9.87911 43.2012C9.88098 43.2326 9.6692 43.2577 9.34453 43.3649C9.02017 43.4703 8.58603 43.68 8.17056 44.0319C7.75632 44.3863 7.45218 44.8057 7.26621 45.1346C7.079 45.4631 6.99285 45.6914 6.96797 45.6797C6.95118 45.6732 6.99969 45.4241 7.16856 45.0642C7.33525 44.7054 7.64126 44.2492 8.0754 43.878C8.51078 43.509 8.97508 43.3091 9.31778 43.234C9.66174 43.1574 9.8788 43.1808 9.87911 43.2012Z" fill="#1D191F"/>
</g>
<g id="Group_36">
<path id="Vector_33" d="M14.8701 56.8609C14.8701 56.9134 13.303 56.9557 11.3703 56.9557C9.43686 56.9557 7.87012 56.9131 7.87012 56.8609C7.87012 56.8084 9.43686 56.7661 11.3703 56.7661C13.303 56.7658 14.8701 56.8084 14.8701 56.8609Z" fill="#1D191F"/>
</g>
</g>
<g id="Group_37">
<path id="Vector_34" d="M15.2625 68.1164C15.2177 68.1164 15.1816 66.6115 15.1816 64.7554C15.1816 62.8986 15.218 61.394 15.2625 61.394C15.307 61.394 15.3434 62.8986 15.3434 64.7554C15.3437 66.6115 15.3073 68.1164 15.2625 68.1164Z" fill="#1D191F"/>
</g>
<g id="Group_38">
<path id="Vector_35" d="M16.3826 71.0527C16.3378 71.0527 16.3018 69.1153 16.3018 66.7258C16.3018 64.3355 16.3381 62.3984 16.3826 62.3984C16.4274 62.3984 16.4635 64.3355 16.4635 66.7258C16.4635 69.1153 16.4271 71.0527 16.3826 71.0527Z" fill="#1D191F"/>
</g>
</g>
</g>
</g>
<g id="Group 784">
<path id="Vector_36" d="M66.7701 105.131C67.0891 104.571 67.3784 103.994 67.6368 103.404C69.6434 98.0321 69.8172 91.9063 69.8172 86.25C69.8172 78.7114 69.0964 73.2613 67.6549 69.8997C66.2134 66.5381 63.6237 64.8551 59.886 64.8506H46.8897C50.6274 64.8506 53.2178 66.5306 54.6608 69.8907C56.1039 73.2507 56.8246 78.7008 56.8231 86.241C56.8231 93.7872 56.0753 99.5631 54.5796 103.569C53.4217 106.67 50.9028 109.331 47.3998 109.557C47.1741 109.573 46.9484 109.579 46.7227 109.579C49.7314 109.579 55.259 110.302 58.2677 110.302C62.4704 110.302 64.6981 109.318 66.7701 105.131Z" fill="#B1A8FB"/>
<path id="Vector_37" d="M41.8579 114.175C37.8523 107.458 35.8495 98.2648 35.8495 86.5957C35.8495 76.5651 37.5852 64.6748 44.5438 56.8021C46.3433 54.7469 48.5463 53.0839 51.0158 51.9163C53.4854 50.7487 56.1687 50.1015 58.8989 50.015C59.172 50.015 59.4451 50.0015 59.725 50.0015H46.7287C46.4511 50.0015 46.1757 50.0015 45.9026 50.015H45.6453C40.6549 50.2069 35.7931 52.1367 32.1547 55.581C28.7487 58.8041 26.6587 63.2054 25.2931 67.6316C23.4107 73.7415 22.8555 80.2171 22.8555 86.5911C22.8555 98.2603 24.8583 107.453 28.8638 114.171C32.8694 120.888 38.8244 124.246 46.7287 124.246H59.725C51.8192 124.249 45.8635 120.892 41.8579 114.175Z" fill="#B1A8FB"/>
<path id="Vector_38" d="M77.8292 59.6347C81.892 66.0629 83.9234 74.9912 83.9234 86.4196C83.9234 97.848 81.892 107.012 77.8292 113.911C73.7665 120.804 67.7317 124.251 59.7251 124.251C51.8178 124.251 45.8621 120.892 41.858 114.175C37.8539 107.458 35.8511 98.2648 35.8496 86.5957C35.8496 75.0484 37.8524 66.0614 41.858 59.6347C45.8636 53.208 51.8193 49.997 59.7251 50.0015C67.7333 50.0015 73.768 53.2126 77.8292 59.6347ZM67.573 103.569C69.0687 99.5634 69.8165 93.7875 69.8165 86.2413C69.8165 78.6951 69.0958 73.245 67.6543 69.8909C66.2142 66.5324 63.6246 64.8524 59.8854 64.8509C56.2514 64.8509 53.6874 66.5602 52.1932 69.979C50.699 73.3977 49.9527 78.9366 49.9542 86.5957C49.9542 94.2607 50.6749 100.007 52.1164 103.833C53.558 107.66 56.0957 109.575 59.7296 109.58C63.4643 109.58 66.0803 107.576 67.5775 103.569" fill="#7369D0"/>
<g id="Group_39">
<path id="Vector_39" d="M115.618 118.204C115.618 118.188 115.641 118.175 115.65 118.159V118.145C115.698 118.072 115.742 117.997 115.783 117.919C115.791 117.904 115.799 117.888 115.805 117.872C115.839 117.802 115.873 117.73 115.905 117.646C115.918 117.615 115.929 117.581 115.941 117.547C115.952 117.513 115.986 117.423 116.004 117.357C116.022 117.292 116.027 117.276 116.038 117.238C116.049 117.199 116.072 117.107 116.085 117.041L116.112 116.911L116.146 116.685C116.146 116.64 116.16 116.597 116.164 116.552C116.164 116.47 116.18 116.387 116.187 116.301C116.187 116.261 116.187 116.222 116.187 116.182C116.187 116.053 116.198 115.924 116.198 115.789C116.198 114.714 115.93 113.882 115.395 113.292C114.916 112.772 114.252 112.459 113.546 112.421C113.435 112.412 113.322 112.408 113.207 112.408H101.696C102.103 112.388 102.51 112.456 102.887 112.609C103.265 112.762 103.605 112.995 103.883 113.292C104.418 113.884 104.685 114.716 104.685 115.789C104.685 115.924 104.685 116.053 104.685 116.182C104.685 116.222 104.685 116.261 104.685 116.301C104.685 116.387 104.671 116.47 104.662 116.552C104.662 116.597 104.649 116.64 104.644 116.685C104.64 116.73 104.621 116.829 104.608 116.911C104.594 116.992 104.592 116.999 104.583 117.041L104.536 117.238L104.502 117.357C104.482 117.423 104.461 117.486 104.439 117.547C104.416 117.608 104.414 117.615 104.403 117.646C104.371 117.723 104.337 117.795 104.303 117.872C104.295 117.887 104.287 117.903 104.281 117.919C104.236 118.003 104.188 118.084 104.138 118.161L104.107 118.204C104.066 118.263 104.023 118.317 103.98 118.371L103.926 118.432C103.883 118.479 103.838 118.527 103.791 118.57L103.743 118.617C103.679 118.673 103.612 118.725 103.543 118.773L103.504 118.8C103.446 118.838 103.385 118.874 103.321 118.91L103.247 118.946C103.19 118.976 103.13 119.003 103.069 119.028L102.999 119.057C102.913 119.089 102.827 119.118 102.735 119.143H102.703C102.622 119.165 102.536 119.181 102.45 119.197L102.358 119.213L102.132 119.238H102.037C101.931 119.238 101.823 119.249 101.71 119.249H113.239C113.352 119.249 113.465 119.249 113.566 119.238H113.661L113.887 119.213L113.979 119.197C114.067 119.181 114.151 119.165 114.232 119.143H114.266C114.356 119.118 114.444 119.089 114.528 119.057L114.6 119.028C114.661 119.003 114.72 118.976 114.778 118.946L114.851 118.91C114.914 118.874 114.975 118.838 115.033 118.8L115.074 118.773C115.14 118.727 115.203 118.677 115.264 118.624L115.313 118.576C115.358 118.531 115.404 118.486 115.446 118.439L115.501 118.378C115.535 118.317 115.577 118.26 115.618 118.204Z" fill="#B1A8FB"/>
<path id="Vector_40" d="M107.61 121.838C103.137 117.06 105.739 107.891 112.689 107.454C112.865 107.454 113.045 107.436 113.226 107.436H101.697C101.514 107.436 101.336 107.436 101.157 107.454L101.024 107.465C100.848 107.478 100.674 107.496 100.5 107.521C100.327 107.546 100.16 107.578 99.9926 107.614L99.8685 107.643C99.7014 107.682 99.5367 107.724 99.3742 107.776C96.6769 108.614 94.6027 111.074 94.0226 113.807C94.0226 113.85 94.0045 113.893 93.9978 113.936C93.9639 114.107 93.9346 114.279 93.9097 114.453V114.5C93.8849 114.688 93.8669 114.877 93.8533 115.071V115.211C93.842 115.405 93.833 115.604 93.833 115.805C93.833 118.212 94.5854 120.223 96.0901 121.838C96.7993 122.618 97.6675 123.237 98.6362 123.653C99.605 124.07 100.652 124.273 101.706 124.251H113.235C112.179 124.274 111.131 124.071 110.161 123.655C109.19 123.239 108.321 122.619 107.61 121.838Z" fill="#B1A8FB"/>
<path id="Vector_41" d="M118.841 109.848C120.346 111.459 121.098 113.445 121.098 115.804C121.098 118.212 120.357 120.223 118.875 121.837C117.393 123.452 115.512 124.256 113.232 124.25C112.178 124.272 111.131 124.068 110.163 123.652C109.194 123.236 108.326 122.617 107.616 121.837C106.112 120.23 105.359 118.219 105.359 115.804C105.359 113.443 106.125 111.458 107.655 109.848C108.374 109.086 109.242 108.478 110.205 108.064C111.167 107.649 112.204 107.435 113.252 107.435C114.301 107.435 115.338 107.649 116.3 108.064C117.263 108.478 118.13 109.086 118.85 109.848H118.841ZM113.225 119.262C115.218 119.262 116.214 118.109 116.216 115.804C116.216 114.73 115.948 113.898 115.412 113.308C115.134 113.01 114.794 112.777 114.416 112.624C114.039 112.472 113.632 112.403 113.225 112.423C112.835 112.405 112.445 112.476 112.085 112.629C111.726 112.782 111.405 113.014 111.147 113.308C110.636 113.899 110.381 114.731 110.381 115.804C110.381 118.111 111.329 119.263 113.225 119.262Z" fill="#FFC444"/>
<path id="Vector_42" d="M91.1199 121.486C91.287 120.098 92.3907 118.82 93.1513 117.755L97.1689 112.04L107.254 97.7525L111.883 91.1912C112.334 90.5614 113.075 90.0852 113.844 90.1303C112.009 90.1303 110.174 90.1303 108.339 90.1303H104.38C103.071 90.1303 101.536 89.8663 100.559 90.9519L100.498 91.0174C100.435 91.0941 100.372 91.1709 100.311 91.2566L96.1352 97.1747L87.6621 109.178L80.9111 118.743C80.2633 119.662 79.4305 120.723 79.4485 121.903C79.4914 124.901 83.4594 124.239 85.4569 124.239H92.666C92.8015 124.239 92.9346 124.239 93.0701 124.239C92.2417 124.111 91.682 123.481 91.3456 122.718C91.162 122.335 91.084 121.909 91.1199 121.486Z" fill="#B1A8FB"/>
<path id="Vector_43" d="M116.216 92.6292C116.202 93.2641 115.999 93.8802 115.632 94.3987L95.2887 123.046C94.8011 123.849 94.1218 124.251 93.2437 124.251C92.9875 124.254 92.7332 124.206 92.4956 124.11C92.2581 124.014 92.0421 123.872 91.8602 123.691C91.5723 123.479 91.3416 123.198 91.1888 122.875C91.0359 122.552 90.9657 122.195 90.9844 121.838C90.9741 121.175 91.1783 120.525 91.5667 119.987L111.842 91.2614C112.375 90.509 113.052 90.1328 113.874 90.1328C114.186 90.1336 114.495 90.2024 114.778 90.3345C115.062 90.4667 115.313 90.6589 115.514 90.898C115.963 91.3631 116.214 91.9832 116.216 92.6292Z" fill="#FFC444"/>
<path id="Vector_44" d="M97.2658 100.59C97.6143 99.9397 97.787 99.2099 97.7669 98.4726C97.7533 97.5698 97.654 96.7866 96.864 95.9424C95.9996 95.0147 95.0967 95.1118 94.1036 95.1118L83.2402 95.1231C83.6988 95.1002 84.1556 95.1943 84.5678 95.3964C84.9799 95.5986 85.334 95.9022 85.5966 96.2787C86.9148 98.1092 86.1383 102.312 83.2425 101.951L94.1352 101.964C94.8236 101.964 95.5391 101.964 96.1666 101.662C96.6341 101.425 97.0177 101.051 97.2658 100.59Z" fill="#B1A8FB"/>
<path id="Vector_45" d="M86.9078 98.5853C86.9116 97.9312 86.9873 97.2795 87.1335 96.6419C87.54 94.857 88.4969 93.2448 89.8691 92.033C91.1805 90.9044 92.9884 90.1009 94.7444 90.1348C93.2367 90.286 91.6116 90.1348 90.0835 90.1348L85.3143 90.1167C83.6125 90.1167 81.8564 90.1167 80.281 90.76C78.5792 91.4597 77.2317 92.8771 76.3943 94.518C75.2975 96.6394 75.0778 99.1068 75.7826 101.389C76.1457 102.516 76.757 103.547 77.5715 104.406C78.3859 105.265 79.3828 105.931 80.4887 106.354C82.107 106.939 83.8743 106.934 85.5897 106.923L94.8573 106.86C92.3948 106.943 89.9549 105.677 88.5013 103.689C87.4409 102.2 86.8827 100.413 86.9078 98.5853Z" fill="#B1A8FB"/>
<path id="Vector_46" d="M100.356 104.499C99.649 105.269 98.7853 105.88 97.823 106.289C96.8606 106.698 95.8218 106.897 94.7764 106.871C93.7224 106.891 92.6759 106.69 91.7041 106.282C90.7323 105.873 89.8567 105.266 89.1337 104.499C87.6033 102.917 86.8374 100.946 86.8359 98.5852C86.8344 96.2243 87.6003 94.226 89.1337 92.5904C89.8449 91.8027 90.7164 91.1761 91.6895 90.7525C92.6627 90.329 93.7152 90.1183 94.7764 90.1347C95.8253 90.111 96.867 90.3143 97.8301 90.7308C98.7931 91.1472 99.6547 91.767 100.356 92.5475C101.837 94.1591 102.578 96.1716 102.579 98.5852C102.579 100.946 101.838 102.917 100.356 104.499ZM91.8602 98.5852C91.8602 100.842 92.8323 101.971 94.7764 101.971C95.1868 101.99 95.5964 101.918 95.9749 101.758C96.3535 101.598 96.6913 101.355 96.9635 101.048C97.4992 100.431 97.7663 99.6129 97.7648 98.5942C97.7648 97.5229 97.4977 96.678 96.9635 96.0595C96.6918 95.7508 96.3542 95.5071 95.9756 95.3466C95.597 95.186 95.1872 95.1126 94.7764 95.1319C92.8308 95.1319 91.8587 96.286 91.8602 98.5942" fill="#FFC444"/>
</g>
</g>
</g>
</svg>
