<svg width="165" height="167" viewBox="0 0 165 167" fill="none" xmlns="http://www.w3.org/2000/svg">
<g id="Group 780">
<path id="Vector" d="M146.292 131.003C143.06 134.15 140.002 136.18 137.587 137.783C109.19 156.632 75.5883 151.137 68.447 149.796C57.9017 147.814 37.5177 143.985 22.7805 127.953C0.484318 103.698 3.95616 65.4852 21.2506 40.2604C24.414 35.6464 41.1241 10.0374 75.0873 5.93058C95.6415 3.44516 119.601 8.45795 136.952 21.9051C173.373 50.1318 170.78 107.155 146.292 131.003Z" fill="url(#paint0_linear_305_246)"/>
<g id="Group 779">
<g id="Device">
<path id="Vector_2" d="M135.087 23.7437H65.8525V159.652H135.087V23.7437Z" fill="#7B72F6"/>
<path id="Vector_3" d="M144.24 33.3301H135.082V140.694H144.24V33.3301Z" fill="#455A64"/>
<path id="Vector_4" d="M137.53 33.3301H135.082V140.694H137.53V33.3301Z" fill="#B2C3EE"/>
<path id="Vector_5" d="M89.4926 106.769H74.665V113.375H89.4926V106.769Z" fill="#EBEBEB"/>
<path id="Vector_6" d="M107.883 106.769H93.0557V113.375H107.883V106.769Z" fill="#EBEBEB"/>
<path id="Vector_7" d="M126.27 106.769H111.442V113.375H126.27V106.769Z" fill="#EBEBEB"/>
<path id="Vector_8" d="M89.4926 116.151H74.665V122.758H89.4926V116.151Z" fill="#EBEBEB"/>
<path id="Vector_9" d="M107.883 116.151H93.0557V122.758H107.883V116.151Z" fill="#EBEBEB"/>
<path id="Vector_10" d="M126.27 116.151H111.442V122.758H126.27V116.151Z" fill="#EBEBEB"/>
<path id="Vector_11" d="M89.4926 125.53H74.665V132.136H89.4926V125.53Z" fill="#EBEBEB"/>
<path id="Vector_12" d="M107.883 125.53H93.0557V132.136H107.883V125.53Z" fill="#EBEBEB"/>
<path id="Vector_13" d="M126.27 125.53H111.442V132.136H126.27V125.53Z" fill="#EBEBEB"/>
<path id="Vector_14" d="M89.4926 134.913H74.665V141.519H89.4926V134.913Z" fill="#EBEBEB"/>
<path id="Vector_15" d="M107.883 134.913H93.0557V141.519H107.883V134.913Z" fill="#EBEBEB"/>
<path id="Vector_16" d="M126.27 134.913H111.442V141.519H126.27V134.913Z" fill="#EBEBEB"/>
<path id="Vector_17" d="M89.4926 144.295H74.665V150.902H89.4926V144.295Z" fill="#B2C3EE"/>
<path id="Vector_18" d="M107.883 144.295H93.0557V150.902H107.883V144.295Z" fill="#7B72F6"/>
<path id="Vector_19" d="M126.27 144.295H111.442V150.902H126.27V144.295Z" fill="#A6A6A6"/>
<path id="Vector_20" d="M131.353 16.0713H69.5781V102.868H131.353V16.0713Z" fill="#B2C3EE"/>
<path id="Vector_21" d="M127.469 42.4634H73.4658V84.4567H127.469V42.4634Z" fill="white"/>
<path id="Vector_22" d="M121.316 -0.000488281H79.6182V31.4113H121.316V-0.000488281Z" fill="#EBEBEB"/>
<path id="Vector_23" d="M109.024 4.06641H91.9111V4.71162H109.024V4.06641Z" fill="#C7C7C7"/>
<path id="Vector_24" d="M104.862 5.91064H96.0742V6.55586H104.862V5.91064Z" fill="#C7C7C7"/>
<path id="Vector_25" d="M100.699 11.4468H83.5859V12.092H100.699V11.4468Z" fill="#C7C7C7"/>
<path id="Vector_26" d="M104.862 13.2949H83.5859V13.9401H104.862V13.2949Z" fill="#C7C7C7"/>
<path id="Vector_27" d="M94.6587 15.1392H83.5859V15.7844H94.6587V15.1392Z" fill="#C7C7C7"/>
<path id="Vector_28" d="M102.551 16.9873H83.5859V17.6325H102.551V16.9873Z" fill="#C7C7C7"/>
<path id="Vector_29" d="M104.487 18.832H83.5859V19.4772H104.487V18.832Z" fill="#C7C7C7"/>
<path id="Vector_30" d="M102.734 20.6758H83.5859V21.321H102.734V20.6758Z" fill="#C7C7C7"/>
<path id="Vector_31" d="M104.862 22.5239H83.5859V23.1691H104.862V22.5239Z" fill="#C7C7C7"/>
<path id="Vector_32" d="M103.242 24.3682H83.5859V25.0134H103.242V24.3682Z" fill="#C7C7C7"/>
<path id="Vector_33" d="M99.6415 26.2163H83.5859V26.8615H99.6415V26.2163Z" fill="#C7C7C7"/>
<path id="Vector_34" d="M104.67 28.0601H83.5859V28.7053H104.67V28.0601Z" fill="#C7C7C7"/>
<path id="Vector_35" d="M103.471 29.9038H83.5859V30.549H103.471V29.9038Z" fill="#C7C7C7"/>
<path id="Vector_36" d="M117.349 13.2949H110.901V13.9401H117.349V13.2949Z" fill="#C7C7C7"/>
<path id="Vector_37" d="M117.349 15.1392H110.901V15.7844H117.349V15.1392Z" fill="#C7C7C7"/>
<path id="Vector_38" d="M117.349 16.9873H110.901V17.6325H117.349V16.9873Z" fill="#C7C7C7"/>
<path id="Vector_39" d="M117.349 18.832H110.901V19.4772H117.349V18.832Z" fill="#C7C7C7"/>
<path id="Vector_40" d="M117.349 20.6758H110.901V21.321H117.349V20.6758Z" fill="#C7C7C7"/>
<path id="Vector_41" d="M117.349 22.5239H110.901V23.1691H117.349V22.5239Z" fill="#C7C7C7"/>
<path id="Vector_42" d="M117.349 24.3682H110.901V25.0134H117.349V24.3682Z" fill="#C7C7C7"/>
<path id="Vector_43" d="M117.349 26.2163H110.901V26.8615H117.349V26.2163Z" fill="#C7C7C7"/>
<path id="Vector_44" d="M117.349 28.0601H110.901V28.7053H117.349V28.0601Z" fill="#C7C7C7"/>
<path id="Vector_45" d="M117.349 29.9038H110.901V30.549H117.349V29.9038Z" fill="#C7C7C7"/>
<path id="Vector_46" d="M100.149 99.5584C103.418 99.5584 106.068 96.9083 106.068 93.6391C106.068 90.3699 103.418 87.7197 100.149 87.7197C96.8797 87.7197 94.2295 90.3699 94.2295 93.6391C94.2295 96.9083 96.8797 99.5584 100.149 99.5584Z" fill="#A6A6A6"/>
<path id="Vector_47" d="M88.7349 87.7197H74.9355V92.2904H88.7349V87.7197Z" fill="#A6A6A6"/>
<path id="Vector_48" d="M88.7349 94.9844H74.9355V99.555H88.7349V94.9844Z" fill="#A6A6A6"/>
<path id="Vector_49" d="M126.27 87.7197H112.471V92.2904H126.27V87.7197Z" fill="#A6A6A6"/>
<path id="Vector_50" d="M126.27 94.9844H112.471V99.555H126.27V94.9844Z" fill="#A6A6A6"/>
<path id="Vector_51" d="M100.465 75.3609C107.04 75.3609 112.37 70.0308 112.37 63.4556C112.37 56.8805 107.04 51.5503 100.465 51.5503C93.8898 51.5503 88.5596 56.8805 88.5596 63.4556C88.5596 70.0308 93.8898 75.3609 100.465 75.3609Z" fill="#7B72F6"/>
<path id="Vector_52" d="M98.7249 71.9975L92.5225 65.7159L94.608 63.6596L98.2295 67.3269L105.76 55.5215L108.232 57.0991L98.7249 71.9975Z" fill="#B2C3EE"/>
</g>
<path id="Vector_53" d="M82.4029 63.3185C83.4436 62.9647 88.085 60.9291 89.2464 60.0716C90.4078 59.2141 93.5839 56.5125 93.0178 55.5551C92.4517 54.5976 91.461 55.3136 91.461 55.3136C91.461 55.3136 92.6223 53.9607 91.9646 53.0449C91.3069 52.1291 89.8 53.2989 89.8 53.2989C89.8 53.2989 90.8907 51.8211 90.1705 50.9594C89.4504 50.0978 88.1308 51.5256 88.1308 51.5256C88.1308 51.5256 89.1923 50.2185 88.2973 49.7564C87.2233 49.2028 85.5458 51.8378 84.1887 52.6703C83.8807 52.866 77.6699 56.1295 77.6699 56.1295L82.4029 63.3185Z" fill="#AD6359"/>
<path id="Vector_54" d="M88.2473 51.4051C86.9985 53.3324 86.1326 53.961 84.0846 54.9142C84.043 54.935 84.0638 54.9975 84.0846 54.9808C86.1659 54.2274 87.3856 53.5988 88.3181 51.4592C88.3888 51.3551 88.3056 51.3135 88.2473 51.4051Z" fill="#B2C3EE"/>
<path id="Vector_55" d="M89.896 53.1447C88.4349 55.0346 87.4941 55.7256 85.4253 56.8911C85.3961 56.8911 85.4253 56.9577 85.4502 56.9452C87.5732 55.9795 88.7804 55.3218 89.9834 53.2446C90.0375 53.1405 89.9626 53.0614 89.896 53.1447Z" fill="#B2C3EE"/>
<path id="Vector_56" d="M91.3574 55.3796C89.8089 57.1071 88.8057 57.9105 86.6536 58.7764C86.6431 58.7802 86.6345 58.7881 86.6298 58.7982C86.6252 58.8084 86.6247 58.82 86.6286 58.8305C86.6324 58.841 86.6403 58.8495 86.6505 58.8542C86.6606 58.8589 86.6722 58.8593 86.6827 58.8555C88.6442 58.3784 90.3396 57.1495 91.4032 55.4337C91.4823 55.3005 91.4365 55.2589 91.3574 55.3796Z" fill="#B2C3EE"/>
<path id="Vector_57" d="M75.7715 56.271C75.7715 56.271 77.6281 54.0814 78.6562 53.303C79.6844 52.5246 84.5923 51.0177 84.9752 52.0542C85.4706 53.3987 82.8106 54.8265 81.4161 55.351C81.4161 55.351 82.565 58.4606 80.8791 59.8967C79.1932 61.3328 75.7715 56.271 75.7715 56.271Z" fill="#AD6359"/>
<path id="Vector_58" d="M84.9922 52.4663C84.576 54.019 82.6861 54.5934 81.3707 55.2054C81.3504 55.2129 81.3324 55.2255 81.3183 55.2419C81.3042 55.2582 81.2944 55.2779 81.2898 55.299C81.2852 55.3201 81.2861 55.3421 81.2922 55.3628C81.2983 55.3835 81.3096 55.4024 81.3249 55.4177C81.7162 56.7539 81.8869 58.7478 80.9669 59.9009C80.9608 59.9075 80.9576 59.9163 80.958 59.9253C80.9584 59.9342 80.9624 59.9427 80.969 59.9488C80.9756 59.9548 80.9844 59.958 80.9934 59.9576C81.0023 59.9572 81.0108 59.9533 81.0169 59.9467C82.1699 58.8477 82.1658 56.8704 81.6371 55.4343C82.9941 54.8307 84.8507 54.1855 85.0089 52.4705L84.9922 52.4663Z" fill="#B2C3EE"/>
<path id="Vector_59" d="M120.463 43.3915L120.554 78.1584C120.556 78.6203 120.466 79.0779 120.29 79.5051C120.114 79.9323 119.856 80.3207 119.53 80.6481C119.204 80.9755 118.817 81.2355 118.391 81.4133C117.964 81.591 117.507 81.6831 117.045 81.6842L61.9104 81.8299C61.4481 81.831 60.9901 81.7409 60.5627 81.5649C60.1352 81.3889 59.7467 81.1303 59.4192 80.8041C59.0918 80.4778 58.8318 80.0901 58.6543 79.6633C58.4768 79.2365 58.3851 78.7788 58.3846 78.3166L58.293 43.5538C58.2919 42.6853 58.6352 41.8518 59.2478 41.2361C59.8604 40.6204 60.6922 40.2728 61.5607 40.2695L117.183 40.1279C117.612 40.1268 118.038 40.2104 118.435 40.3738C118.833 40.5372 119.194 40.7773 119.499 41.0804C119.803 41.3834 120.045 41.7435 120.211 42.14C120.376 42.5366 120.462 42.9618 120.463 43.3915Z" fill="#7B72F6"/>
<path id="Vector_60" opacity="0.2" d="M120.463 43.3915L120.554 78.1584C120.556 78.6203 120.466 79.0779 120.29 79.5051C120.114 79.9323 119.856 80.3207 119.53 80.6481C119.204 80.9755 118.817 81.2355 118.391 81.4133C117.964 81.591 117.507 81.6831 117.045 81.6842L61.9104 81.8299C61.4481 81.831 60.9901 81.7409 60.5627 81.5649C60.1352 81.3889 59.7467 81.1303 59.4192 80.8041C59.0918 80.4778 58.8318 80.0901 58.6543 79.6633C58.4768 79.2365 58.3851 78.7788 58.3846 78.3166L58.293 43.5538C58.2919 42.6853 58.6352 41.8518 59.2478 41.2361C59.8604 40.6204 60.6922 40.2728 61.5607 40.2695L117.183 40.1279C117.612 40.1268 118.038 40.2104 118.435 40.3738C118.833 40.5372 119.194 40.7773 119.499 41.0804C119.803 41.3834 120.045 41.7435 120.211 42.14C120.376 42.5366 120.462 42.9618 120.463 43.3915Z" fill="black"/>
<path id="Vector_61" d="M73.4492 46.2094L65.2737 46.2308C64.3081 46.2333 63.5274 47.0181 63.53 47.9837L63.5419 52.5501C63.5445 53.5157 64.3293 54.2964 65.2948 54.2939L73.4703 54.2725C74.4359 54.27 75.2166 53.4852 75.2141 52.5196L75.2021 47.9531C75.1996 46.9875 74.4148 46.2068 73.4492 46.2094Z" fill="#7B72F6"/>
<path id="Vector_62" d="M63.1295 61.6536L62.6549 61.9366C62.6378 61.9489 62.6176 61.9561 62.5966 61.9574C62.5757 61.9576 62.5552 61.9523 62.5369 61.942C62.5187 61.9318 62.5034 61.917 62.4926 61.8991C62.4846 61.8859 62.4795 61.8711 62.4775 61.8558C62.4755 61.8405 62.4767 61.8249 62.481 61.8101C62.4853 61.7952 62.4926 61.7814 62.5025 61.7695C62.5123 61.7577 62.5246 61.7479 62.5384 61.741L63.1877 61.3247C63.2153 61.3112 63.2468 61.3079 63.2766 61.3156C63.3064 61.3232 63.3324 61.3412 63.3501 61.3663C63.3581 61.3949 63.3581 61.4251 63.3501 61.4537V64.5633C63.3507 64.5787 63.3481 64.5942 63.3424 64.6086C63.3368 64.623 63.3282 64.6361 63.3173 64.647C63.3063 64.6579 63.2932 64.6665 63.2788 64.6722C63.2644 64.6778 63.249 64.6804 63.2335 64.6798C63.2026 64.6798 63.173 64.6676 63.1511 64.6457C63.1293 64.6238 63.117 64.5942 63.117 64.5633L63.1295 61.6536Z" fill="#F8F8F8"/>
<path id="Vector_63" d="M64.2076 64.4882L65.7853 63.0563C65.8753 62.9737 65.9473 62.8733 65.9968 62.7616C66.0462 62.6498 66.072 62.5291 66.0725 62.4069C66.0714 62.1921 65.9896 61.9857 65.8436 61.8283C65.7658 61.742 65.6717 61.6719 65.5668 61.622C65.4619 61.5722 65.3482 61.5435 65.2321 61.5377C65.1161 61.5319 65.0001 61.5491 64.8907 61.5882C64.7813 61.6274 64.6808 61.6877 64.5948 61.7658L64.4283 61.9198C64.4178 61.9308 64.4052 61.9395 64.3912 61.9455C64.3773 61.9514 64.3623 61.9545 64.3471 61.9545C64.3319 61.9545 64.3169 61.9514 64.303 61.9455C64.289 61.9395 64.2764 61.9308 64.2659 61.9198C64.2543 61.9093 64.245 61.8965 64.2387 61.8821C64.2323 61.8678 64.229 61.8523 64.229 61.8366C64.229 61.8209 64.2323 61.8054 64.2387 61.7911C64.245 61.7767 64.2543 61.7639 64.2659 61.7533L64.4283 61.5993C64.634 61.4143 64.9009 61.312 65.1775 61.3121C65.3306 61.3102 65.4822 61.3412 65.6223 61.403C65.7623 61.4647 65.8874 61.5558 65.9893 61.6701C66.1775 61.8711 66.283 62.1357 66.2848 62.411C66.2857 62.5674 66.2539 62.7222 66.1915 62.8655C66.1292 63.0089 66.0376 63.1376 65.9227 63.2436L64.574 64.4716H66.1724C66.2037 64.4727 66.2334 64.4859 66.2551 64.5084C66.2769 64.5309 66.289 64.561 66.289 64.5923C66.289 64.6232 66.2767 64.6529 66.2548 64.6747C66.233 64.6966 66.2033 64.7089 66.1724 64.7089H64.2867H64.2659C64.2501 64.7097 64.2342 64.7067 64.2198 64.7002C64.2053 64.6937 64.1926 64.6838 64.1827 64.6714C64.1708 64.6583 64.162 64.6429 64.1568 64.626C64.1516 64.6092 64.1501 64.5914 64.1525 64.574C64.1549 64.5565 64.161 64.5398 64.1706 64.525C64.1801 64.5102 64.1927 64.4976 64.2076 64.4882Z" fill="#F8F8F8"/>
<path id="Vector_64" d="M69.0995 61.5075L68.2295 62.4108C68.432 62.4524 68.6195 62.5481 68.7721 62.6877C68.9246 62.8273 69.0365 63.0056 69.0959 63.2037C69.1552 63.4018 69.1598 63.6123 69.1091 63.8127C69.0585 64.0132 68.9544 64.1962 68.8081 64.3423C68.7023 64.4504 68.576 64.5362 68.4366 64.5948C68.2972 64.6534 68.1476 64.6836 67.9963 64.6837C67.846 64.6848 67.6969 64.6555 67.5581 64.5976C67.4193 64.5396 67.2937 64.4542 67.1888 64.3465C67.1667 64.3244 67.1543 64.2945 67.1543 64.2632C67.1543 64.232 67.1667 64.2021 67.1888 64.18C67.2109 64.1579 67.2408 64.1455 67.272 64.1455C67.3033 64.1455 67.3332 64.1579 67.3553 64.18C67.528 64.3449 67.7575 64.4373 67.9963 64.4381C68.1157 64.4386 68.2339 64.4155 68.3443 64.3701C68.4546 64.3247 68.5549 64.2579 68.6393 64.1735C68.7236 64.0891 68.7905 63.9889 68.8359 63.8785C68.8813 63.7682 68.9044 63.6499 68.9038 63.5306C68.9045 63.412 68.8812 63.2944 68.8355 63.185C68.7897 63.0756 68.7223 62.9765 68.6374 62.8937C68.5542 62.8084 68.4544 62.7412 68.3441 62.696C68.2338 62.6509 68.1155 62.6289 67.9963 62.6315C67.9777 62.6305 67.9595 62.6256 67.943 62.617C67.9265 62.6084 67.912 62.5963 67.9006 62.5815C67.8888 62.5702 67.8793 62.5567 67.8729 62.5416C67.8665 62.5266 67.8631 62.5104 67.8631 62.4941C67.8631 62.4777 67.8665 62.4616 67.8729 62.4465C67.8793 62.4315 67.8888 62.4179 67.9006 62.4067L68.7331 61.5408H67.4385C67.4225 61.5414 67.4066 61.5387 67.3917 61.5328C67.3768 61.527 67.3632 61.5181 67.3519 61.5068C67.3406 61.4954 67.3317 61.4819 67.3258 61.467C67.32 61.4521 67.3172 61.4361 67.3178 61.4201C67.3172 61.4041 67.32 61.3881 67.3258 61.3732C67.3317 61.3583 67.3406 61.3448 67.3519 61.3335C67.3632 61.3221 67.3768 61.3133 67.3917 61.3074C67.4066 61.3015 67.4225 61.2988 67.4385 61.2994H69.0162C69.0324 61.2988 69.0486 61.3015 69.0637 61.3074C69.0788 61.3132 69.0926 61.322 69.1043 61.3332C69.1159 61.3445 69.1252 61.358 69.1315 61.3729C69.1378 61.3879 69.1411 61.4039 69.1411 61.4201C69.1478 61.4375 69.1478 61.4568 69.1411 61.4742C69.137 61.4825 69.1312 61.4898 69.124 61.4955C69.1168 61.5013 69.1084 61.5054 69.0995 61.5075Z" fill="#F8F8F8"/>
<path id="Vector_65" d="M71.9503 63.98H70.1021C70.0748 63.9818 70.0478 63.9728 70.0271 63.955C70.0155 63.9445 70.0062 63.9316 69.9999 63.9173C69.9935 63.9029 69.9902 63.8874 69.9902 63.8717C69.9902 63.8561 69.9935 63.8405 69.9999 63.8262C70.0062 63.8119 70.0155 63.799 70.0271 63.7885L71.9794 61.3491C71.9896 61.3376 72.0021 61.3284 72.0161 61.3221C72.0301 61.3158 72.0452 61.3125 72.0606 61.3125C72.076 61.3125 72.0911 61.3158 72.1051 61.3221C72.1191 61.3284 72.1316 61.3376 72.1418 61.3491C72.1626 61.3491 72.1709 61.3866 72.1834 61.4074V63.7469H72.4124C72.4433 63.7469 72.4729 63.7591 72.4948 63.781C72.5166 63.8029 72.5289 63.8325 72.5289 63.8634C72.5289 63.8943 72.5166 63.924 72.4948 63.9458C72.4729 63.9677 72.4433 63.98 72.4124 63.98H72.1834V64.5627C72.1782 64.5904 72.1635 64.6154 72.1418 64.6333C72.1202 64.6513 72.0929 64.6612 72.0648 64.6612C72.0366 64.6612 72.0094 64.6513 71.9877 64.6333C71.966 64.6154 71.9513 64.5904 71.9461 64.5627L71.9503 63.98ZM71.9503 63.7469V61.7613L70.356 63.751L71.9503 63.7469Z" fill="#F8F8F8"/>
<path id="Vector_66" d="M76.1924 64.3301C76.1807 64.3192 76.1714 64.306 76.165 64.2913C76.1586 64.2766 76.1553 64.2608 76.1553 64.2448C76.1553 64.2288 76.1586 64.2129 76.165 64.1982C76.1714 64.1836 76.1807 64.1704 76.1924 64.1594C76.2163 64.1375 76.2475 64.1253 76.2799 64.1253C76.3122 64.1253 76.3434 64.1375 76.3673 64.1594C76.4505 64.2438 76.5497 64.3107 76.659 64.3564C76.7684 64.4021 76.8857 64.4257 77.0042 64.4257C77.1227 64.4257 77.24 64.4021 77.3493 64.3564C77.4586 64.3107 77.5578 64.2438 77.6411 64.1594C77.7258 64.0765 77.793 63.9774 77.8388 63.868C77.8846 63.7586 77.9079 63.6411 77.9075 63.5226C77.9084 63.403 77.8857 63.2845 77.8407 63.1738C77.7957 63.0631 77.7293 62.9623 77.6452 62.8773C77.4734 62.7109 77.2434 62.6183 77.0042 62.6192C76.8849 62.6185 76.7667 62.6417 76.6566 62.6874C76.5465 62.7332 76.4467 62.8006 76.3631 62.8857C76.3522 62.8974 76.339 62.9067 76.3243 62.9131C76.3096 62.9195 76.2938 62.9228 76.2778 62.9228C76.2618 62.9228 76.2459 62.9195 76.2312 62.9131C76.2166 62.9067 76.2033 62.8974 76.1924 62.8857C76.1785 62.8772 76.1681 62.8638 76.1633 62.8482C76.161 62.8344 76.161 62.8203 76.1633 62.8066C76.164 62.7983 76.164 62.7899 76.1633 62.7816L76.3256 61.4204C76.3241 61.403 76.3276 61.3855 76.3358 61.37C76.3439 61.3545 76.3562 61.3417 76.3714 61.333C76.382 61.3231 76.3944 61.3154 76.408 61.3104C76.4216 61.3054 76.4361 61.3032 76.4505 61.3038H78.024C78.056 61.3038 78.0867 61.3166 78.1094 61.3392C78.132 61.3618 78.1447 61.3925 78.1447 61.4246C78.1447 61.4566 78.132 61.4873 78.1094 61.5099C78.0867 61.5326 78.056 61.5453 78.024 61.5453H76.5463L76.4297 62.5526C76.6033 62.4488 76.8019 62.3941 77.0042 62.3945C77.3078 62.3945 77.5989 62.5151 77.8136 62.7297C78.0283 62.9444 78.1489 63.2356 78.1489 63.5392C78.153 63.6933 78.1256 63.8467 78.0683 63.9898C78.0111 64.133 77.9252 64.263 77.8159 64.3717C77.598 64.5832 77.3078 64.7038 77.0042 64.7089C76.8504 64.7034 76.6993 64.667 76.5599 64.6019C76.4204 64.5368 76.2955 64.4444 76.1924 64.3301Z" fill="#F8F8F8"/>
<path id="Vector_67" d="M79.4104 62.011C79.5229 61.7929 79.6921 61.609 79.9 61.4787C80.108 61.3483 80.3472 61.2763 80.5926 61.27C80.6232 61.2699 80.6527 61.2815 80.6751 61.3024C80.6975 61.3233 80.7112 61.3519 80.7133 61.3824C80.7134 61.4141 80.7013 61.4447 80.6797 61.4679C80.658 61.4911 80.6284 61.5052 80.5967 61.5073C80.3931 61.5136 80.1947 61.574 80.0221 61.6823C79.8495 61.7906 79.7087 61.9428 79.6143 62.1234C79.4982 62.3352 79.4167 62.5643 79.3729 62.8019C79.5447 62.6074 79.779 62.4789 80.0353 62.4384C80.2917 62.398 80.5541 62.4483 80.7774 62.5805C81.0008 62.7128 81.171 62.9187 81.2588 63.1629C81.3466 63.4072 81.3466 63.6743 81.2586 63.9185C81.1707 64.1627 81.0003 64.3686 80.7769 64.5007C80.5535 64.6328 80.2911 64.6829 80.0347 64.6424C79.7784 64.6018 79.5442 64.4732 79.3725 64.2786C79.2008 64.0839 79.1023 63.8356 79.094 63.5762C79.0898 63.5027 79.0898 63.429 79.094 63.3555C79.084 62.8878 79.1928 62.4252 79.4104 62.011ZM79.3313 63.5553C79.3269 63.5773 79.3269 63.6 79.3313 63.6219C79.3351 63.6327 79.3351 63.6445 79.3313 63.6553C79.3464 63.8904 79.4524 64.1104 79.6268 64.2688C79.8013 64.4272 80.0305 64.5115 80.266 64.504C80.5015 64.4964 80.7248 64.3975 80.8888 64.2283C81.0527 64.059 81.1443 63.8326 81.1443 63.597C81.1443 63.3613 81.0527 63.135 80.8888 62.9657C80.7248 62.7964 80.5015 62.6975 80.266 62.69C80.0305 62.6824 79.8013 62.7667 79.6268 62.9251C79.4524 63.0835 79.3464 63.3036 79.3313 63.5387V63.5553Z" fill="#F8F8F8"/>
<path id="Vector_68" d="M82.5691 64.4838L83.8179 61.5117H82.182C82.1511 61.5117 82.1214 61.4994 82.0996 61.4775C82.0777 61.4557 82.0654 61.426 82.0654 61.3951C82.0654 61.3642 82.0777 61.3346 82.0996 61.3127C82.1214 61.2908 82.1511 61.2786 82.182 61.2786H83.9719C83.9951 61.2724 84.0195 61.2724 84.0427 61.2786C84.0575 61.2854 84.0707 61.2952 84.0814 61.3073C84.0922 61.3195 84.1003 61.3338 84.1052 61.3493C84.1052 61.3493 84.1052 61.3743 84.1052 61.3868C84.1047 61.4105 84.0975 61.4336 84.0843 61.4534L82.7814 64.5713C82.7719 64.5912 82.7572 64.6083 82.7389 64.6207C82.7207 64.6331 82.6994 64.6405 82.6773 64.642C82.6609 64.6461 82.6438 64.6461 82.6274 64.642C82.5997 64.6277 82.5783 64.6035 82.5675 64.5743C82.5568 64.545 82.5573 64.5127 82.5691 64.4838Z" fill="#F8F8F8"/>
<path id="Vector_69" d="M85.9044 61.2534C86.0472 61.259 86.185 61.308 86.2993 61.3938C86.4136 61.4797 86.499 61.5983 86.5442 61.7339C86.5894 61.8695 86.5923 62.0157 86.5523 62.153C86.5124 62.2902 86.4316 62.4121 86.3206 62.5022C86.522 62.5852 86.6943 62.726 86.8157 62.9067C86.9372 63.0875 87.0025 63.3002 87.0033 63.5179C86.9861 63.7972 86.8631 64.0593 86.6592 64.251C86.4554 64.4426 86.1862 64.5493 85.9064 64.5493C85.6267 64.5493 85.3575 64.4426 85.1536 64.251C84.9498 64.0593 84.8268 63.7972 84.8096 63.5179C84.8097 63.3011 84.8737 63.0891 84.9937 62.9085C85.1136 62.7278 85.2841 62.5865 85.4839 62.5022C85.396 62.4355 85.3246 62.3492 85.2755 62.2503C85.2264 62.1514 85.2009 62.0424 85.2009 61.932C85.2063 61.7494 85.2829 61.5762 85.4144 61.4494C85.5459 61.3226 85.7217 61.2523 85.9044 61.2534ZM85.9044 64.4046C86.018 64.4052 86.1307 64.3831 86.2357 64.3397C86.3408 64.2964 86.4362 64.2326 86.5164 64.152C86.5966 64.0714 86.6599 63.9757 86.7028 63.8704C86.7456 63.7652 86.7671 63.6524 86.766 63.5388C86.766 63.3673 86.7152 63.1998 86.6198 63.0573C86.5245 62.9148 86.389 62.8038 86.2306 62.7384C86.0721 62.673 85.8978 62.6561 85.7298 62.6899C85.5617 62.7236 85.4074 62.8065 85.2865 62.928C85.1656 63.0495 85.0834 63.2042 85.0505 63.3724C85.0176 63.5406 85.0353 63.7149 85.1015 63.873C85.1676 64.0311 85.2793 64.1661 85.4222 64.2607C85.5651 64.3553 85.7329 64.4054 85.9044 64.4046ZM85.9044 62.4315C85.9667 62.4309 86.0283 62.4181 86.0857 62.3938C86.143 62.3694 86.195 62.334 86.2387 62.2895C86.2824 62.2451 86.3169 62.1925 86.3402 62.1347C86.3636 62.0769 86.3753 62.0151 86.3748 61.9528C86.3748 61.828 86.3252 61.7084 86.237 61.6202C86.1488 61.5319 86.0291 61.4824 85.9044 61.4824C85.7796 61.4824 85.66 61.5319 85.5718 61.6202C85.4835 61.7084 85.434 61.828 85.434 61.9528C85.4334 62.0154 85.4453 62.0776 85.4689 62.1356C85.4925 62.1937 85.5274 62.2465 85.5715 62.291C85.6156 62.3355 85.6681 62.3709 85.726 62.395C85.7838 62.4191 85.8459 62.4315 85.9085 62.4315H85.9044Z" fill="#F8F8F8"/>
<path id="Vector_70" d="M91.9236 61.2374C92.1973 61.2355 92.4621 61.3347 92.6672 61.516C92.8723 61.6973 93.0033 61.9479 93.0351 62.2197C93.0358 62.2281 93.0358 62.2364 93.0351 62.2447C93.0351 62.3363 93.0351 62.432 93.0351 62.5361C93.046 63.0058 92.9356 63.4703 92.7145 63.8848C92.6002 64.1015 92.4307 64.2842 92.2231 64.4143C92.0155 64.5445 91.7772 64.6174 91.5323 64.6258C91.517 64.6263 91.5017 64.6239 91.4874 64.6185C91.473 64.6132 91.4599 64.6051 91.4487 64.5946C91.4374 64.5842 91.4284 64.5716 91.422 64.5577C91.4157 64.5438 91.4121 64.5287 91.4116 64.5134C91.411 64.4975 91.4136 64.4817 91.4192 64.4669C91.4247 64.452 91.4332 64.4384 91.444 64.4268C91.4548 64.4152 91.4678 64.4059 91.4823 64.3993C91.4967 64.3927 91.5123 64.3891 91.5282 64.3885C91.7316 64.3813 91.9296 64.3206 92.1021 64.2124C92.2746 64.1042 92.4155 63.9525 92.5106 63.7724C92.6298 63.562 92.7116 63.3324 92.752 63.0939C92.6284 63.2353 92.4713 63.3434 92.295 63.4081C92.1188 63.4729 91.9291 63.4923 91.7433 63.4645C91.5576 63.4368 91.3819 63.3628 91.2322 63.2493C91.0826 63.1359 90.9639 62.9866 90.8871 62.8152C90.8103 62.6439 90.7777 62.456 90.7925 62.2688C90.8074 62.0816 90.869 61.9011 90.9718 61.744C91.0746 61.5869 91.2153 61.4581 91.3809 61.3696C91.5465 61.281 91.7317 61.2356 91.9195 61.2374H91.9236ZM92.8103 62.3488C92.8103 62.1743 92.7585 62.0036 92.6615 61.8585C92.5646 61.7134 92.4268 61.6003 92.2655 61.5335C92.1042 61.4667 91.9268 61.4492 91.7556 61.4833C91.5844 61.5173 91.4272 61.6014 91.3038 61.7248C91.1803 61.8482 91.0963 62.0054 91.0622 62.1766C91.0282 62.3478 91.0457 62.5253 91.1125 62.6865C91.1793 62.8478 91.2924 62.9856 91.4375 63.0826C91.5826 63.1795 91.7532 63.2313 91.9278 63.2313C92.0438 63.2318 92.1588 63.2094 92.2661 63.1652C92.3735 63.1211 92.471 63.0561 92.553 62.974C92.6351 62.892 92.7001 62.7945 92.7442 62.6872C92.7884 62.5798 92.8108 62.4648 92.8103 62.3488Z" fill="#F8F8F8"/>
<path id="Vector_71" d="M93.9049 62.9269C93.8951 62.5082 94.008 62.0959 94.2296 61.7405C94.3155 61.5933 94.4365 61.4695 94.5817 61.3802C94.7269 61.2909 94.8919 61.2388 95.0621 61.2285C95.2315 61.2401 95.3955 61.2923 95.5404 61.3807C95.6853 61.4691 95.8068 61.5911 95.8946 61.7364C96.1166 62.0904 96.2322 62.5007 96.2277 62.9186C96.2329 63.3353 96.1203 63.7451 95.903 64.1008C95.8162 64.2473 95.695 64.3705 95.55 64.4597C95.4049 64.5489 95.2403 64.6014 95.0704 64.6128C94.9007 64.6029 94.7359 64.5515 94.5907 64.4629C94.4455 64.3743 94.3244 64.2514 94.2379 64.1049C94.0154 63.7527 93.8997 63.3435 93.9049 62.9269ZM94.1422 62.9269C94.1372 63.2972 94.2383 63.6612 94.4335 63.9759C94.4976 64.0947 94.5908 64.1952 94.7044 64.2681C94.818 64.3409 94.9483 64.3836 95.0829 64.3922C95.216 64.3797 95.3441 64.3353 95.4564 64.2629C95.5687 64.1904 95.6619 64.092 95.7281 63.9759C95.9141 63.6606 96.0122 63.3013 96.0122 62.9352C96.0122 62.5692 95.9141 62.2098 95.7281 61.8945C95.6683 61.7734 95.5758 61.6714 95.461 61.6001C95.3463 61.5288 95.2139 61.4911 95.0788 61.4911C94.9437 61.4911 94.8113 61.5288 94.6965 61.6001C94.5817 61.6714 94.4892 61.7734 94.4294 61.8945C94.2398 62.2038 94.1403 62.5599 94.1422 62.9227V62.9269Z" fill="#F8F8F8"/>
<path id="Vector_72" d="M97.814 61.5658L97.3353 61.8489C97.3161 61.8536 97.2961 61.8536 97.277 61.8489C97.2565 61.8496 97.2363 61.8445 97.2186 61.8342C97.2009 61.8239 97.1865 61.8088 97.1771 61.7906C97.1683 61.7778 97.1624 61.7633 97.1598 61.748C97.1571 61.7327 97.1578 61.717 97.1618 61.702C97.1657 61.687 97.1728 61.673 97.1827 61.661C97.1925 61.649 97.2048 61.6393 97.2187 61.6324L97.8722 61.2161C97.8995 61.2023 97.931 61.1994 97.9603 61.2079C97.9897 61.2164 98.0147 61.2357 98.0304 61.2619C98.0403 61.2902 98.0403 61.321 98.0304 61.3494V64.4589C98.0304 64.4898 98.0181 64.5195 97.9963 64.5413C97.9744 64.5632 97.9448 64.5754 97.9139 64.5754C97.8833 64.5744 97.8542 64.5618 97.8326 64.5402C97.811 64.5185 97.7983 64.4895 97.7973 64.4589L97.814 61.5658Z" fill="#F8F8F8"/>
<path id="Vector_73" d="M98.8835 64.3964L100.461 62.9644C100.59 62.8462 100.68 62.692 100.72 62.5218C100.76 62.3516 100.748 62.1733 100.685 62.0102C100.622 61.8472 100.511 61.7068 100.367 61.6075C100.224 61.5081 100.053 61.4544 99.8784 61.4533C99.6605 61.4534 99.4502 61.5334 99.2873 61.6781L99.1249 61.828C99.1144 61.8396 99.1015 61.8489 99.0872 61.8552C99.0729 61.8616 99.0574 61.8649 99.0417 61.8649C99.026 61.8649 99.0105 61.8616 98.9961 61.8552C98.9818 61.8489 98.969 61.8396 98.9584 61.828C98.9474 61.8171 98.9385 61.8042 98.9325 61.7899C98.9265 61.7756 98.9234 61.7602 98.9234 61.7447C98.9234 61.7292 98.9265 61.7139 98.9325 61.6996C98.9385 61.6853 98.9474 61.6723 98.9584 61.6615L99.1249 61.5074C99.3317 61.3241 99.5979 61.222 99.8742 61.2202C100.165 61.2224 100.444 61.3387 100.65 61.5442C100.857 61.7497 100.974 62.028 100.977 62.3192C100.979 62.4753 100.948 62.63 100.887 62.7734C100.825 62.9168 100.734 63.0457 100.619 63.1517L99.2665 64.4005H100.869C100.9 64.4026 100.929 64.4161 100.951 64.4384C100.972 64.4607 100.985 64.4902 100.986 64.5212C100.985 64.5518 100.972 64.5809 100.95 64.6025C100.929 64.6241 100.9 64.6368 100.869 64.6378H98.9626C98.9464 64.6391 98.9302 64.6368 98.9151 64.6311C98.9 64.6253 98.8863 64.6162 98.8752 64.6045C98.86 64.5914 98.848 64.5751 98.8401 64.5567C98.8321 64.5383 98.8284 64.5184 98.8292 64.4984C98.83 64.4784 98.8353 64.4589 98.8447 64.4412C98.8541 64.4235 98.8674 64.4082 98.8835 64.3964Z" fill="#F8F8F8"/>
<path id="Vector_74" d="M106.68 61.4116L105.805 62.3149C106.025 62.3561 106.227 62.4636 106.384 62.6229C106.498 62.7276 106.59 62.8542 106.654 62.9952C106.718 63.1362 106.752 63.2886 106.756 63.4434C106.76 63.5981 106.732 63.752 106.674 63.8958C106.617 64.0395 106.531 64.1702 106.422 64.28C106.313 64.3897 106.182 64.4762 106.039 64.5344C105.896 64.5925 105.742 64.6211 105.587 64.6184C105.432 64.6156 105.28 64.5816 105.138 64.5184C104.997 64.4552 104.87 64.3641 104.765 64.2506C104.753 64.2396 104.744 64.2264 104.737 64.2118C104.731 64.1971 104.728 64.1812 104.728 64.1652C104.728 64.1492 104.731 64.1334 104.737 64.1187C104.744 64.104 104.753 64.0908 104.765 64.0799C104.788 64.0582 104.818 64.0462 104.85 64.0462C104.882 64.0462 104.912 64.0582 104.935 64.0799C105.105 64.248 105.334 64.3423 105.572 64.3421C105.812 64.3396 106.042 64.2441 106.213 64.0757C106.298 63.9919 106.365 63.892 106.411 63.7819C106.457 63.6719 106.48 63.5538 106.48 63.4347C106.481 63.316 106.458 63.1983 106.412 63.0888C106.366 62.9793 106.299 62.8803 106.213 62.7978C106.13 62.7127 106.03 62.6453 105.92 62.5996C105.81 62.5538 105.692 62.5306 105.572 62.5314C105.536 62.5291 105.501 62.5127 105.477 62.4856C105.465 62.4743 105.455 62.4607 105.449 62.4457C105.442 62.4307 105.439 62.4145 105.439 62.3982C105.439 62.3818 105.442 62.3656 105.449 62.3506C105.455 62.3356 105.465 62.322 105.477 62.3107L106.309 61.4407H105.014C104.982 61.4407 104.952 61.428 104.929 61.4054C104.906 61.3827 104.894 61.352 104.894 61.32C104.893 61.304 104.896 61.2881 104.902 61.2731C104.908 61.2582 104.916 61.2447 104.928 61.2334C104.939 61.222 104.953 61.2132 104.968 61.2073C104.982 61.2014 104.998 61.1987 105.014 61.1993H106.596C106.628 61.1993 106.659 61.212 106.682 61.2347C106.704 61.2573 106.717 61.288 106.717 61.32C106.723 61.3376 106.723 61.3566 106.717 61.3741C106.708 61.3895 106.695 61.4024 106.68 61.4116Z" fill="#F8F8F8"/>
<path id="Vector_75" d="M109.527 63.8807H107.67C107.643 63.8825 107.616 63.8735 107.595 63.8557C107.584 63.8455 107.575 63.833 107.568 63.819C107.562 63.805 107.559 63.7899 107.559 63.7745C107.559 63.7591 107.562 63.744 107.568 63.73C107.575 63.716 107.584 63.7035 107.595 63.6933L109.548 61.2498C109.558 61.2388 109.571 61.23 109.586 61.2239C109.6 61.2179 109.615 61.2148 109.631 61.2148C109.646 61.2148 109.662 61.2179 109.676 61.2239C109.69 61.23 109.703 61.2388 109.714 61.2498C109.729 61.2672 109.742 61.2869 109.752 61.3081C109.751 61.315 109.751 61.322 109.752 61.3289V63.6642H109.98C110.012 63.6642 110.042 63.6763 110.064 63.6981C110.087 63.7198 110.1 63.7495 110.101 63.7807C110.101 63.7964 110.098 63.8119 110.092 63.8263C110.086 63.8408 110.077 63.8538 110.066 63.8647C110.054 63.8756 110.041 63.884 110.026 63.8897C110.012 63.8953 109.996 63.8979 109.98 63.8973H109.752V64.4759C109.752 64.4916 109.748 64.5071 109.742 64.5215C109.736 64.5359 109.727 64.549 109.716 64.5598C109.705 64.5707 109.691 64.5792 109.677 64.5848C109.662 64.5904 109.646 64.593 109.631 64.5925C109.601 64.5925 109.572 64.5808 109.55 64.5598C109.528 64.5389 109.515 64.5103 109.514 64.4801L109.527 63.8807ZM109.527 63.6475V61.6661L107.932 63.6517L109.527 63.6475Z" fill="#F8F8F8"/>
<path id="Vector_76" d="M110.868 64.2385C110.857 64.2276 110.848 64.2147 110.842 64.2004C110.836 64.1861 110.833 64.1707 110.833 64.1552C110.833 64.1397 110.836 64.1243 110.842 64.11C110.848 64.0958 110.857 64.0828 110.868 64.0719C110.879 64.0601 110.893 64.0507 110.908 64.0442C110.923 64.0378 110.939 64.0345 110.955 64.0345C110.972 64.0345 110.988 64.0378 111.003 64.0442C111.018 64.0507 111.032 64.0601 111.043 64.0719C111.215 64.2376 111.445 64.3301 111.684 64.33C111.913 64.3145 112.128 64.2123 112.285 64.0442C112.443 63.8761 112.53 63.6547 112.53 63.4246C112.53 63.1946 112.443 62.9731 112.285 62.8051C112.128 62.637 111.913 62.5348 111.684 62.5193C111.442 62.5214 111.21 62.6186 111.039 62.7898C111.028 62.8009 111.015 62.8097 111.001 62.8157C110.986 62.8217 110.971 62.8248 110.955 62.8248C110.94 62.8248 110.925 62.8217 110.91 62.8157C110.896 62.8097 110.883 62.8009 110.872 62.7898C110.858 62.7817 110.847 62.7682 110.843 62.7524C110.839 62.7403 110.839 62.727 110.843 62.7149C110.843 62.7149 110.843 62.7149 110.843 62.6899L111.005 61.3246C111.006 61.307 111.011 61.2899 111.02 61.2747C111.028 61.2595 111.041 61.2466 111.055 61.2371C111.076 61.2185 111.103 61.2082 111.13 61.208H112.708C112.74 61.208 112.771 61.2207 112.793 61.2434C112.816 61.266 112.829 61.2967 112.829 61.3287C112.829 61.3447 112.826 61.3607 112.821 61.3756C112.815 61.3905 112.806 61.4041 112.795 61.4154C112.783 61.4267 112.77 61.4356 112.755 61.4414C112.74 61.4473 112.724 61.45 112.708 61.4494H111.234L111.114 62.4568C111.29 62.3549 111.489 62.3004 111.692 62.2986C111.842 62.2979 111.991 62.327 112.129 62.3841C112.268 62.4413 112.394 62.5254 112.5 62.6317C112.712 62.8486 112.831 63.14 112.831 63.4434C112.831 63.7468 112.712 64.0381 112.5 64.2551C112.284 64.4691 111.992 64.5901 111.688 64.5923C111.535 64.5913 111.383 64.5594 111.242 64.4986C111.101 64.4379 110.974 64.3494 110.868 64.2385Z" fill="#F8F8F8"/>
<path id="Vector_77" d="M114.086 61.92C114.2 61.7026 114.37 61.5197 114.578 61.3901C114.787 61.2606 115.026 61.1892 115.272 61.1832C115.302 61.182 115.332 61.1927 115.354 61.2129C115.377 61.2331 115.39 61.2612 115.393 61.2914C115.393 61.3236 115.381 61.3546 115.359 61.3785C115.338 61.4024 115.308 61.4173 115.276 61.4205C115.071 61.4265 114.872 61.4872 114.698 61.5962C114.525 61.7053 114.384 61.8587 114.289 62.0407C114.173 62.2522 114.093 62.4815 114.052 62.7192C114.224 62.5258 114.457 62.3981 114.712 62.3582C114.968 62.3182 115.229 62.3685 115.451 62.5003C115.673 62.6322 115.843 62.8373 115.93 63.0805C116.017 63.3238 116.017 63.5898 115.93 63.8329C115.842 64.0761 115.673 64.2811 115.45 64.4127C115.228 64.5443 114.967 64.5944 114.711 64.5542C114.456 64.514 114.223 64.3861 114.052 64.1925C113.88 63.999 113.782 63.7518 113.773 63.4935C113.767 63.4187 113.767 63.3435 113.773 63.2687C113.764 62.8002 113.871 62.3367 114.086 61.92ZM114.011 63.4685C114.008 63.4893 114.008 63.5102 114.011 63.531C114.013 63.5419 114.013 63.5533 114.011 63.5643C114.026 63.7994 114.132 64.0194 114.306 64.1778C114.481 64.3362 114.71 64.4205 114.945 64.413C115.181 64.4054 115.404 64.3065 115.568 64.1373C115.732 63.968 115.824 63.7416 115.824 63.506C115.824 63.2704 115.732 63.044 115.568 62.8747C115.404 62.7054 115.181 62.6065 114.945 62.599C114.71 62.5914 114.481 62.6757 114.306 62.8341C114.132 62.9925 114.026 63.2126 114.011 63.4477V63.4685Z" fill="#F8F8F8"/>
<path id="Vector_78" d="M93.1106 70.4266L63.5889 70.5039L63.5927 71.9567L93.1144 71.8794L93.1106 70.4266Z" fill="#7B72F6"/>
<path id="Vector_79" d="M84.2554 73.9541H63.3545V75.4069H84.2554V73.9541Z" fill="#7B72F6"/>
<path id="Vector_80" d="M103.762 46.1304L89.0381 46.1689L89.0419 47.6217L103.765 47.5832L103.762 46.1304Z" fill="#7B72F6"/>
<g id="u5Zjqx">
<path id="Vector_81" d="M114.531 52.3333L114.256 52.0585C114.202 52.0044 114.148 51.9545 114.098 51.9003C114.451 51.5518 114.732 51.1364 114.924 50.6783C115.116 50.2202 115.214 49.7286 115.214 49.232C115.214 48.7355 115.116 48.2439 114.924 47.7858C114.732 47.3277 114.451 46.9123 114.098 46.5638L114.252 46.4139L114.526 46.1392V46.16C114.63 46.2765 114.739 46.3889 114.839 46.5096C115.042 46.7667 115.215 47.046 115.355 47.3422C115.523 47.6806 115.643 48.0406 115.713 48.412C115.746 48.591 115.763 48.77 115.784 48.949C115.784 49.0114 115.784 49.4069 115.784 49.4194C115.784 49.5401 115.784 49.665 115.759 49.7857C115.72 50.1216 115.64 50.4515 115.521 50.7681C115.439 50.9995 115.334 51.2225 115.209 51.4341C115.082 51.6605 114.933 51.8738 114.764 52.071C114.68 52.1709 114.589 52.2667 114.501 52.3624L114.531 52.3333Z" fill="white"/>
<path id="Vector_82" d="M113.228 47.4415L113.644 47.0044C113.937 47.2964 114.17 47.6435 114.329 48.0256C114.487 48.4078 114.569 48.8176 114.569 49.2314C114.569 49.6453 114.487 50.0551 114.329 50.4372C114.17 50.8194 113.937 51.1665 113.644 51.4585L113.228 51.0214C113.463 50.7864 113.649 50.5073 113.776 50.2002C113.904 49.8931 113.969 49.5639 113.969 49.2314C113.969 48.899 113.904 48.5698 113.776 48.2627C113.649 47.9556 113.463 47.6765 113.228 47.4415Z" fill="white"/>
<path id="Vector_83" d="M112.791 50.5844L112.354 50.1681C112.475 50.0488 112.572 49.9063 112.638 49.749C112.704 49.5917 112.737 49.4228 112.736 49.2523C112.735 48.9084 112.597 48.579 112.354 48.3365L112.77 47.8994C113.127 48.2537 113.329 48.7347 113.333 49.2376C113.337 49.7405 113.142 50.2245 112.791 50.5844Z" fill="white"/>
</g>
<path id="Vector_84" d="M69.0324 82.3667C70.3759 82.9308 71.7555 83.405 73.1619 83.7862C74.7267 84.1039 76.3128 84.3056 77.9073 84.3898C77.9157 84.3925 77.9229 84.3978 77.928 84.4049C77.9332 84.412 77.936 84.4205 77.936 84.4293C77.936 84.4381 77.9332 84.4466 77.928 84.4537C77.9229 84.4608 77.9157 84.4661 77.9073 84.4689C74.8101 84.6147 71.7321 83.9093 69.0075 82.4291C68.9575 82.3917 68.9575 82.3376 69.0324 82.3667Z" fill="#B2C3EE"/>
<path id="Vector_85" d="M67.4923 84.9812C68.8535 85.4224 71.2387 86.1801 75.6928 86.1384V86.1634C72.9006 86.5636 70.0521 86.1772 67.4673 85.0478C67.3882 85.0145 67.4007 84.9354 67.4923 84.9812Z" fill="#B2C3EE"/>
<path id="Vector_86" d="M66.6892 86.405C69.0286 87.0627 70.5896 87.1834 73.1372 87.2708V87.2958C70.2233 87.4998 69.1535 87.2458 66.6559 86.4633C66.5726 86.4549 66.6018 86.38 66.6892 86.405Z" fill="#B2C3EE"/>
<g id="Bag">
<path id="Vector_87" d="M122.969 166.612H159.243L153.952 129.664H128.255L122.969 166.612Z" fill="#FFC444"/>
<path id="Vector_88" opacity="0.1" d="M128.26 129.66L132.289 166.612H122.969L128.26 129.66Z" fill="#0048FF"/>
<path id="Vector_89" d="M146.525 132.248C146.525 132.215 145.863 129.118 145.164 126.004C144.577 123.394 141.988 122.195 139.823 122.549C139.057 122.674 136.589 123.324 136.909 126.516C137.275 130.184 137.559 131.957 137.563 131.974L136.039 132.223C136.039 132.148 135.744 130.392 135.369 126.67C135.073 123.702 136.726 121.484 139.577 121.026C142.429 120.568 145.884 122.171 146.654 125.667C147.357 128.802 148.011 131.911 148.019 131.94L146.525 132.248Z" fill="#0048FF"/>
<path id="Vector_90" d="M131.815 166.324C130.982 165.946 130.175 165.521 129.367 165.096C128.56 164.672 127.769 164.218 126.982 163.756H127.19C126.57 164.21 125.941 164.655 125.309 165.08C124.676 165.504 124.035 165.937 123.373 166.329C123.947 165.817 124.543 165.33 125.142 164.851C125.742 164.372 126.349 163.906 126.965 163.448L127.065 163.373L127.174 163.435C127.965 163.885 128.748 164.35 129.526 164.83C130.279 165.309 131.049 165.796 131.815 166.324Z" fill="white"/>
<path id="Vector_91" d="M127.061 163.61C127.061 161.246 127.102 158.886 127.152 156.534C127.202 154.182 127.285 151.817 127.348 149.457C127.41 147.097 127.523 144.741 127.635 142.381L127.81 138.842C127.881 137.664 127.939 136.486 128.022 135.308C128.022 136.49 128.022 137.668 127.997 138.851L127.931 142.389C127.881 144.749 127.797 147.109 127.735 149.465C127.672 151.822 127.56 154.186 127.448 156.542C127.335 158.898 127.235 161.238 127.061 163.61Z" fill="white"/>
<path id="Vector_92" d="M145.743 132.087C145.743 132.391 145.834 132.689 146.003 132.943C146.172 133.196 146.413 133.393 146.695 133.51C146.977 133.626 147.287 133.657 147.585 133.597C147.884 133.537 148.159 133.39 148.374 133.174C148.589 132.958 148.736 132.684 148.794 132.385C148.853 132.085 148.822 131.776 148.705 131.494C148.588 131.213 148.39 130.973 148.136 130.804C147.882 130.635 147.584 130.546 147.279 130.546C146.871 130.547 146.481 130.71 146.193 130.999C145.905 131.288 145.743 131.679 145.743 132.087Z" fill="#0048FF"/>
<path id="Vector_93" d="M135.378 132.087C135.378 132.391 135.468 132.689 135.638 132.942C135.807 133.196 136.047 133.393 136.329 133.51C136.61 133.626 136.92 133.657 137.219 133.597C137.517 133.538 137.792 133.391 138.007 133.176C138.223 132.96 138.369 132.686 138.429 132.387C138.488 132.088 138.458 131.779 138.341 131.497C138.225 131.216 138.027 130.975 137.774 130.806C137.521 130.637 137.223 130.546 136.918 130.546C136.51 130.546 136.118 130.709 135.829 130.998C135.54 131.286 135.378 131.678 135.378 132.087Z" fill="#0048FF"/>
</g>
<g id="Icon">
<g id="u5Zjqx_2">
<path id="Vector_94" d="M148.578 81.393L146.471 79.27L145.264 78.067C150.792 72.3682 153.739 65.5789 153.744 57.6447C153.748 49.7106 150.805 42.9129 145.239 37.1726C145.635 36.7979 146.043 36.4191 146.438 36.0278L148.54 33.9465C148.555 33.9257 148.568 33.9034 148.578 33.8799H148.628C148.673 33.934 148.711 33.9881 148.757 34.0381C149.548 34.9289 150.372 35.7989 151.129 36.7188C154.511 40.9075 156.817 45.859 157.848 51.1426C158.098 52.4996 158.223 53.8817 158.393 55.2512C158.452 55.7174 158.46 58.752 158.452 58.8478C158.385 59.7802 158.343 60.7168 158.244 61.6451C157.951 64.2232 157.346 66.756 156.441 69.1879C155.793 70.9538 154.995 72.6612 154.056 74.2914C153.07 76.0161 151.927 77.6464 150.642 79.1618C149.993 79.9235 149.302 80.6562 148.628 81.4013L148.578 81.393Z" fill="#7B72F6"/>
<path id="Vector_95" d="M138.596 43.9032C139.711 42.7834 140.802 41.6845 141.926 40.5522C145.672 44.3694 148.058 48.8776 148.774 54.1893C149.847 62.1192 147.437 68.9294 141.976 74.703L138.646 71.3354C142.325 67.5432 144.315 62.9767 144.311 57.6235C144.307 52.2702 142.296 47.7246 138.596 43.9032Z" fill="#7B72F6"/>
<path id="Vector_96" d="M135.253 67.9846L131.923 64.6544C132.849 63.7337 133.584 62.6389 134.086 61.433C134.588 60.2271 134.846 58.9339 134.846 57.6278C134.846 56.3217 134.588 55.0285 134.086 53.8226C133.584 52.6167 132.849 51.5219 131.923 50.6012L135.253 47.271C140.789 52.5701 141.231 62.1152 135.253 67.9846Z" fill="#7B72F6"/>
</g>
</g>
</g>
<g id="Group">
<path id="Vector_97" d="M34.4365 103.316L27.1115 105.031L28.9427 117.892C28.9427 117.892 26.1957 120.464 25.2801 123.894C24.3645 127.324 23.5203 141.724 23.5203 141.724L21.7822 142.708L21.5708 143.529L26.6275 149.896L25.789 144.829C25.6558 144.024 25.8865 142.393 25.8139 142.359C28.5608 135.499 34.4365 116.177 34.4365 116.177V103.316Z" fill="url(#paint1_linear_305_246)"/>
<path id="Vector_98" d="M36.5765 143.618C36.4972 143.616 36.4193 143.622 36.3395 143.618C36.6935 139.483 38.3111 121.284 39.9299 114.463C41.7612 106.746 37.183 91.313 37.183 91.313L28.9422 99.0296L33.5204 113.605C30.383 118.012 34.0322 143.819 33.9536 143.808L33.9587 143.865L32.764 145.403L32.9093 146.237L40.2069 150.27L37.3355 145.903C36.8797 145.21 36.6279 144.424 36.5765 143.618Z" fill="url(#paint2_linear_305_246)"/>
<path id="Vector_99" d="M27.3075 57.0889C27.3075 57.0889 11.2628 74.022 27.3075 82.7042L28.9424 81.5958C28.9424 81.5958 20.9766 74.4531 28.9424 65.7094L27.3075 57.0889Z" fill="url(#paint3_linear_305_246)"/>
<path id="Vector_100" d="M40.6879 150.902H38.359C37.9231 150.902 37.512 150.714 37.2462 150.391C36.5202 149.508 35.016 147.784 34.2968 147.739C33.3285 147.679 33.4524 150.902 33.4524 150.902H32.9097L32.2222 146.897C32.0493 145.889 32.5845 144.891 33.5509 144.418C33.5509 144.418 33.7722 145.951 34.9723 146.629C36.1724 147.307 39.8559 149.735 39.8559 149.735C39.8559 149.735 40.3071 149.675 40.8025 149.759C41.5372 149.883 41.4346 150.902 40.6879 150.902Z" fill="#7DEAED"/>
<path id="Vector_101" d="M26.8082 150.654L24.6616 149.808C24.2599 149.65 23.9585 149.328 23.8473 148.933C23.5439 147.855 22.8712 145.72 22.2269 145.418C21.3595 145.01 20.1389 148.026 20.1389 148.026L19.6386 147.829L20.6636 143.888C20.9214 142.896 21.8282 142.17 22.9144 142.086C22.9144 142.086 22.4838 143.579 23.3092 144.64C24.1346 145.7 26.5246 149.276 26.5246 149.276C26.5246 149.276 26.9653 149.384 27.3873 149.641C28.0131 150.023 27.4965 150.925 26.8082 150.654Z" fill="#7DEAED"/>
<path id="Vector_102" d="M39.2814 78.2645C39.2814 78.2645 39.0121 79.8101 39.4066 84.0588C39.8013 88.3075 41.6872 98.2826 41.3032 107.827C41.3032 107.827 35.9418 108.997 26.6269 108.443C26.6269 108.443 22.6958 93.5413 23.6536 87.8764C24.6112 82.2115 29.8061 78.1475 29.8061 78.1475L39.2814 78.2645Z" fill="url(#paint4_linear_305_246)"/>
<path id="Vector_103" d="M35.3202 49.8736L35.9756 57.0887H29.7499L31.2979 46.0752L35.3202 49.8736Z" fill="url(#paint5_linear_305_246)"/>
<path id="Vector_104" d="M27.905 56.0911C30.0536 55.9802 34.8575 55.7748 38.2607 55.9485C40.0526 56.0399 41.5535 57.2437 41.9201 58.8886L42.7501 62.6135C43.0593 64.0008 43.013 65.4371 42.6152 66.8045L39.2813 78.2646C39.2813 78.2646 36.3159 79.9333 29.8058 78.1476C29.8058 78.1476 24.0887 65.3814 26.4289 57.2148C26.6108 56.5805 27.2047 56.1273 27.905 56.0911Z" fill="url(#paint6_linear_305_246)"/>
<path id="Vector_105" d="M41.7577 58.2207C42.6747 60.4828 43.503 62.8547 44.3928 65.0761C44.8452 66.1879 45.3042 67.2779 45.7952 68.2788C46.0435 68.7773 46.3163 69.2354 46.5666 69.6507C46.8173 70.0618 47.0995 70.4038 47.2466 70.5612C47.2754 70.5846 47.1788 70.6024 47.1465 70.6038C47.127 70.6061 47.7665 70.702 47.9626 70.7328L48.729 70.7285C49.8274 70.6756 51.0717 70.4943 52.3196 70.2672C54.8367 69.8278 57.4538 69.2107 60.1409 68.7439L60.1616 68.7403C60.6758 68.651 61.1699 68.9689 61.2653 69.4504C61.3282 69.768 61.2007 70.0782 60.9599 70.2777C59.8764 71.1708 58.7279 71.9045 57.5366 72.6186C56.937 72.962 56.3269 73.2985 55.7066 73.6216C55.0743 73.9234 54.4401 74.2277 53.7814 74.5091C52.4553 75.0501 51.0853 75.5486 49.5071 75.8687C49.0923 75.9337 48.6829 76.0018 48.2562 76.0554C47.7776 76.0709 47.3429 76.1106 46.8202 76.0823C46.5425 76.0566 46.2636 76.0247 45.9854 75.9868C45.8371 75.9623 45.728 75.9597 45.5483 75.9133C45.3576 75.8597 45.1674 75.7996 44.9799 75.7338C44.588 75.6021 44.3346 75.4427 44.0163 75.2768C43.752 75.1136 43.5109 74.943 43.2771 74.768C42.4143 74.0798 41.8786 73.3968 41.4063 72.7411C40.9355 72.0859 40.5623 71.4295 40.2272 70.7861C39.5551 69.5012 39.0303 68.2279 38.6045 66.9458C37.7416 64.3766 37.1569 61.8517 36.9101 59.1695C36.792 57.8848 37.8083 56.7537 39.1803 56.643C40.3158 56.5514 41.339 57.1876 41.7249 58.138L41.7577 58.2207Z" fill="url(#paint7_linear_305_246)"/>
<path id="Vector_106" d="M59.2951 69.8967L60.4061 67.4273L66.2535 66.063C66.2535 66.063 66.7212 67.0121 64.2654 67.4273C64.2654 67.4273 65.1426 68.3352 64.6747 69.4029C64.2068 70.4706 59.2367 71.5403 59.2951 69.8967Z" fill="url(#paint8_linear_305_246)"/>
<path id="Vector_107" d="M37.9564 41.5407C38.1787 41.6635 39.9302 47.4481 38.4624 49.8735C36.9947 52.2988 32.5126 49.5823 31.298 46.0752C30.0832 42.5681 32.0348 38.2706 37.9564 41.5407Z" fill="url(#paint9_linear_305_246)"/>
<path id="Vector_108" d="M26.339 46.0757C25.3337 50.6881 22.0027 49.4258 19.6434 51.4778C15.8195 54.8036 10.3495 51.3752 5.0315 54.5268C1.19242 56.8021 -0.65728 62.6231 1.18497 67.3229C3.73672 73.8322 12.4569 76.5091 16.9759 74.5265C21.2948 72.6317 20.6798 66.9568 26.4908 64.7637C28.9578 63.8326 30.1757 64.4376 31.6532 63.0576C34.2396 60.6418 33.5417 55.9538 33.2729 54.1478C32.6894 50.2289 31.2863 49.5194 31.9569 47.7971C33.2613 44.4472 39.3453 45.1384 39.8524 42.7735C40.314 40.62 35.9043 36.5379 31.7544 37.1812C25.3337 38.1764 26.787 44.0208 26.339 46.0757Z" fill="#7B72F6"/>
<path id="Vector_109" opacity="0.6" d="M3.10318 66.2205C3.027 66.2205 2.95839 66.1723 2.93973 66.1001C2.11772 62.9044 2.49064 60.2836 4.0488 58.3102C6.6345 55.0352 11.6598 54.7112 11.7104 54.7084C11.7895 54.6961 11.8825 54.769 11.8884 54.856C11.8939 54.9427 11.8237 55.0174 11.7308 55.0226C11.6819 55.0254 6.8085 55.342 4.31764 58.4992C2.82252 60.3939 2.46894 62.9265 3.26676 66.0262C3.28841 66.1107 3.23292 66.1959 3.14261 66.2162C3.12947 66.2191 3.11599 66.2205 3.10318 66.2205Z" fill="white"/>
<path id="Vector_110" opacity="0.72" d="M19.7232 69.142C19.7163 69.142 19.7091 69.1411 19.7019 69.1395C19.6572 69.1285 19.6304 69.0855 19.6419 69.0433C20.4425 66.1664 21.8477 64.1685 23.8176 63.1045C25.2506 62.3304 26.5927 62.2585 27.7766 62.1949C28.9181 62.1333 29.904 62.0802 30.6975 61.4195C32.3377 60.0537 32.2428 56.7698 30.4151 51.6589C30.4003 51.6177 30.4243 51.5731 30.4683 51.5593C30.5126 51.5454 30.5599 51.5679 30.5747 51.6091C32.4258 56.7852 32.5045 60.1254 30.8091 61.537C29.9719 62.2343 28.9591 62.289 27.7861 62.352C26.6209 62.4147 25.3002 62.4858 23.9016 63.2411C21.9721 64.2829 20.5936 66.2486 19.8047 69.0833C19.7949 69.1186 19.7607 69.142 19.7232 69.142Z" fill="white"/>
<path id="Vector_111" opacity="0.72" d="M28.7178 44.9306C28.7089 44.9306 28.7001 44.9294 28.6908 44.9266C28.6468 44.9128 28.6232 44.8679 28.638 44.8267C29.2746 43.0534 31.1086 43.317 33.0518 43.5967C34.2816 43.7738 35.5531 43.956 36.6316 43.6573C37.4363 43.4338 37.9142 43.0876 38.0525 42.628C38.2886 41.8456 37.4619 40.9731 37.4537 40.9642C37.4225 40.932 37.4255 40.8821 37.4599 40.8532C37.4941 40.8241 37.5476 40.8268 37.5784 40.8591C37.6152 40.8972 38.4751 41.8038 38.2146 42.6705C38.0597 43.1854 37.5432 43.5681 36.6795 43.8079C35.5642 44.1172 34.2743 43.9318 33.0261 43.7523C31.0756 43.4719 29.3891 43.2288 28.7975 44.8772C28.7857 44.91 28.7529 44.9306 28.7178 44.9306Z" fill="white"/>
</g>
</g>
<defs>
<linearGradient id="paint0_linear_305_246" x1="184.281" y1="195.334" x2="55.5895" y2="24.6507" gradientUnits="userSpaceOnUse">
<stop stop-color="#DAE3FE"/>
<stop offset="1" stop-color="#E9EFFD"/>
</linearGradient>
<linearGradient id="paint1_linear_305_246" x1="18.0341" y1="148.762" x2="36.4648" y2="98.0922" gradientUnits="userSpaceOnUse">
<stop stop-color="#FEBBBA"/>
<stop offset="1" stop-color="#FF928E"/>
</linearGradient>
<linearGradient id="paint2_linear_305_246" x1="17.7195" y1="309.114" x2="77.7058" y2="-439.598" gradientUnits="userSpaceOnUse">
<stop stop-color="#FEBBBA"/>
<stop offset="1" stop-color="#FF928E"/>
</linearGradient>
<linearGradient id="paint3_linear_305_246" x1="20.1765" y1="69.8965" x2="28.9424" y2="69.8965" gradientUnits="userSpaceOnUse">
<stop stop-color="#FEBBBA"/>
<stop offset="1" stop-color="#FF928E"/>
</linearGradient>
<linearGradient id="paint4_linear_305_246" x1="13.0754" y1="68.1467" x2="29.8345" y2="92.3828" gradientUnits="userSpaceOnUse">
<stop stop-color="#4F52FF"/>
<stop offset="1" stop-color="#4042E2"/>
</linearGradient>
<linearGradient id="paint5_linear_305_246" x1="29.7499" y1="51.5819" x2="35.9756" y2="51.5819" gradientUnits="userSpaceOnUse">
<stop stop-color="#FEBBBA"/>
<stop offset="1" stop-color="#FF928E"/>
</linearGradient>
<linearGradient id="paint6_linear_305_246" x1="-42.5989" y1="43.4183" x2="-17.4238" y2="52.2462" gradientUnits="userSpaceOnUse">
<stop stop-color="#FF928E"/>
<stop offset="1" stop-color="#FE7062"/>
</linearGradient>
<linearGradient id="paint7_linear_305_246" x1="66.2768" y1="54.906" x2="14.2381" y2="86.743" gradientUnits="userSpaceOnUse">
<stop stop-color="#FEBBBA"/>
<stop offset="1" stop-color="#FF928E"/>
</linearGradient>
<linearGradient id="paint8_linear_305_246" x1="71.6271" y1="63.651" x2="19.5884" y2="95.488" gradientUnits="userSpaceOnUse">
<stop stop-color="#FEBBBA"/>
<stop offset="1" stop-color="#FF928E"/>
</linearGradient>
<linearGradient id="paint9_linear_305_246" x1="40.1193" y1="51.5796" x2="29.0778" y2="34.3373" gradientUnits="userSpaceOnUse">
<stop stop-color="#FEBBBA"/>
<stop offset="1" stop-color="#FF928E"/>
</linearGradient>
</defs>
</svg>
