<svg width="48" height="48" viewBox="0 0 48 48" fill="none" xmlns="http://www.w3.org/2000/svg">
<g id="14624823291538117464 1">
<path id="Vector" d="M40.9129 30.1139L31.6525 35.6004L28.1252 33.3714H32.5599C33.2387 33.3714 33.8897 33.1017 34.3697 32.6217C34.8497 32.1418 35.1194 31.4908 35.1194 30.812C35.1194 30.1332 34.8497 29.4822 34.3697 29.0022C33.8897 28.5222 33.2387 28.2526 32.5599 28.2526H24.9422C24.0661 28.2474 23.1966 28.4052 22.3782 28.7179L16.4543 31.4076V30.812C16.4543 30.6268 16.3808 30.4493 16.2499 30.3184C16.119 30.1875 15.9414 30.1139 15.7563 30.1139H10.6375C10.4523 30.1139 10.2748 30.1875 10.1439 30.3184C10.013 30.4493 9.93945 30.6268 9.93945 30.812V42.4456C9.93945 42.6308 10.013 42.8083 10.1439 42.9392C10.2748 43.0701 10.4523 43.1437 10.6375 43.1437H15.7563C15.9414 43.1437 16.119 43.0701 16.2499 42.9392C16.3808 42.8083 16.4543 42.6308 16.4543 42.4456V41.7476H30.9219C31.8376 41.7491 32.7303 41.4608 33.472 40.924L43.3653 33.8367C43.7789 33.4802 44.0485 32.9853 44.1239 32.4445C44.1992 31.9036 44.0751 31.3539 43.7747 30.8979C43.4743 30.4419 43.0182 30.1108 42.4916 29.9665C41.9649 29.8223 41.4038 29.8747 40.9129 30.1139ZM15.0583 41.7476H11.3355V31.51H15.0583V41.7476ZM42.5556 32.7245L32.6577 39.7932C32.1524 40.1576 31.5449 40.3531 30.9219 40.3516H16.4543V32.9386L22.9133 30.0209C23.561 29.7732 24.2488 29.647 24.9422 29.6486H32.5599C32.8685 29.6486 33.1644 29.7712 33.3826 29.9893C33.6007 30.2075 33.7233 30.5034 33.7233 30.812C33.7233 31.1205 33.6007 31.4164 33.3826 31.6346C33.1644 31.8528 32.8685 31.9753 32.5599 31.9753H25.7147C25.5632 31.9752 25.4158 32.0243 25.2946 32.1152C25.1735 32.2062 25.0853 32.3341 25.0432 32.4797C25.0012 32.6252 25.0077 32.7805 25.0616 32.922C25.1156 33.0636 25.2142 33.1837 25.3424 33.2643L31.2663 36.9871C31.3762 37.0546 31.5026 37.0903 31.6316 37.0903C31.7605 37.0903 31.887 37.0546 31.9969 36.9871L41.6296 31.268C41.8182 31.1575 42.0421 31.1237 42.255 31.1738C42.4678 31.2238 42.6533 31.3538 42.7729 31.5369C42.8925 31.7199 42.9372 31.9419 42.8976 32.1569C42.858 32.372 42.7372 32.5635 42.5602 32.692L42.5556 32.7245Z" fill="white"/>
<path id="Vector_2" d="M44.1421 24.5298H42.5134C42.3958 20.2522 40.7531 16.1576 37.8816 12.9849C35.0102 9.81221 31.0992 7.77047 26.8545 7.22817C27.2437 6.79294 27.4987 6.25436 27.5886 5.67742C27.6785 5.10049 27.5995 4.50987 27.3611 3.97685C27.1227 3.44384 26.7351 2.99121 26.2452 2.67361C25.7552 2.35601 25.1838 2.18701 24.5999 2.18701C24.016 2.18701 23.4446 2.35601 22.9546 2.67361C22.4647 2.99121 22.0771 3.44384 21.8387 3.97685C21.6003 4.50987 21.5213 5.10049 21.6112 5.67742C21.7011 6.25436 21.956 6.79294 22.3453 7.22817C18.0994 7.76853 14.1868 9.80956 11.3142 12.9825C8.44161 16.1555 6.79852 20.2512 6.68173 24.5298H4.58767C4.40254 24.5298 4.225 24.6033 4.09409 24.7342C3.96319 24.8651 3.88965 25.0426 3.88965 25.2278C3.88965 25.4129 3.96319 25.5904 4.09409 25.7213C4.225 25.8523 4.40254 25.9258 4.58767 25.9258H44.1421C44.3273 25.9258 44.5048 25.8523 44.6357 25.7213C44.7666 25.5904 44.8401 25.4129 44.8401 25.2278C44.8401 25.0426 44.7666 24.8651 44.6357 24.7342C44.5048 24.6033 44.3273 24.5298 44.1421 24.5298ZM24.5976 3.58916C24.9197 3.58916 25.2346 3.68468 25.5024 3.86365C25.7703 4.04261 25.979 4.29698 26.1023 4.59459C26.2256 4.8922 26.2578 5.21968 26.195 5.53562C26.1321 5.85156 25.977 6.14177 25.7492 6.36955C25.5215 6.59733 25.2313 6.75245 24.9153 6.81529C24.5994 6.87813 24.2719 6.84588 23.9743 6.72261C23.6767 6.59933 23.4223 6.39058 23.2433 6.12274C23.0644 5.8549 22.9689 5.54 22.9689 5.21787C22.9689 4.78591 23.1405 4.37164 23.4459 4.0662C23.7513 3.76076 24.1656 3.58916 24.5976 3.58916ZM24.5976 8.4753C28.8984 8.47712 33.0292 10.1547 36.1135 13.1521C39.1978 16.1495 40.9927 20.2307 41.1174 24.5298H8.07777C8.20245 20.2307 9.99737 16.1495 13.0816 13.1521C16.1659 10.1547 20.2968 8.47712 24.5976 8.4753Z" fill="white"/>
<path id="Vector_3" d="M20.847 11.7839C18.9295 12.3268 17.1534 13.2813 15.6425 14.5809C14.1316 15.8804 12.9222 17.4938 12.0985 19.3085C12.0522 19.3931 12.0239 19.4863 12.0154 19.5824C12.0069 19.6784 12.0184 19.7752 12.0492 19.8665C12.0799 19.9579 12.1293 20.0419 12.1941 20.1133C12.259 20.1846 12.3379 20.2418 12.4259 20.2811C12.514 20.3205 12.6092 20.3411 12.7056 20.3419C12.802 20.3426 12.8975 20.3233 12.9861 20.2852C13.0747 20.2472 13.1545 20.1912 13.2203 20.1208C13.2862 20.0504 13.3368 19.9672 13.3689 19.8762C14.1104 18.2483 15.1977 16.8014 16.555 15.6361C17.9123 14.4709 19.5071 13.6152 21.2286 13.1287C21.3169 13.1037 21.3994 13.0615 21.4714 13.0045C21.5434 12.9476 21.6035 12.877 21.6482 12.7969C21.6929 12.7167 21.7214 12.6285 21.7321 12.5374C21.7427 12.4462 21.7353 12.3538 21.7102 12.2655C21.6852 12.1772 21.643 12.0947 21.5861 12.0227C21.5291 11.9507 21.4585 11.8906 21.3784 11.8459C21.2982 11.8012 21.2101 11.7727 21.1189 11.762C21.0277 11.7514 20.9353 11.7588 20.847 11.7839Z" fill="white"/>
</g>
</svg>
