<svg width="41" height="41" viewBox="0 0 41 41" fill="none" xmlns="http://www.w3.org/2000/svg">
<g id="203541367316297319353946 1">
<path id="Vector" d="M31.8553 26.6436L38.1053 11.9999C38.1455 11.9049 38.1616 11.8014 38.1521 11.6987C38.1426 11.596 38.1079 11.4972 38.051 11.4112C37.994 11.3251 37.9166 11.2546 37.8258 11.2057C37.735 11.1568 37.6335 11.1312 37.5303 11.1311H34.0428C33.877 11.1311 33.718 11.197 33.6008 11.3142C33.4836 11.4314 33.4178 11.5904 33.4178 11.7561C33.4178 11.9219 33.4836 12.0809 33.6008 12.1981C33.718 12.3153 33.877 12.3811 34.0428 12.3811H36.5865L30.8678 25.7749H11.849L8.86777 12.3811H11.5678C11.7335 12.3811 11.8925 12.3153 12.0097 12.1981C12.1269 12.0809 12.1928 11.9219 12.1928 11.7561C12.1928 11.5904 12.1269 11.4314 12.0097 11.3142C11.8925 11.197 11.7335 11.1311 11.5678 11.1311H8.58652L8.15527 9.1249C8.12352 8.9839 8.0439 8.85827 7.92996 8.7694C7.81596 8.68052 7.67477 8.63383 7.53027 8.6374H2.53027C2.36451 8.6374 2.20554 8.70321 2.08833 8.82046C1.97112 8.93765 1.90527 9.09665 1.90527 9.2624C1.90527 9.42815 1.97112 9.58715 2.08833 9.70433C2.20554 9.82152 2.36451 9.8874 2.53027 9.8874H7.03027L11.8303 31.4499C11.862 31.5909 11.9416 31.7165 12.0556 31.8054C12.1696 31.8943 12.3108 31.9409 12.4553 31.9374H31.2803C31.446 31.9374 31.605 31.8715 31.7222 31.7543C31.8394 31.6371 31.9053 31.4781 31.9053 31.3124C31.9053 31.1466 31.8394 30.9876 31.7222 30.8705C31.605 30.7532 31.446 30.6874 31.2803 30.6874H12.9428L12.124 27.0249H31.2803C31.403 27.0248 31.5229 26.9886 31.6251 26.9208C31.7274 26.853 31.8074 26.7566 31.8553 26.6436Z" fill="white"/>
<path id="Vector_2" d="M15.7867 33.1685C15.2253 33.1685 14.6764 33.335 14.2096 33.6471C13.7429 33.9592 13.3792 34.4027 13.1646 34.9215C12.95 35.4404 12.8942 36.0113 13.0042 36.5618C13.1142 37.1124 13.3851 37.618 13.7825 38.0146C14.18 38.4112 14.6861 38.6809 15.237 38.7897C15.7878 38.8985 16.3585 38.8414 16.8769 38.6257C17.3953 38.41 17.838 38.0453 18.1491 37.5778C18.4601 37.1104 18.6255 36.5612 18.6242 35.9997C18.6242 35.6274 18.5508 35.2587 18.4081 34.9148C18.2655 34.5709 18.0563 34.2585 17.7928 33.9955C17.5292 33.7325 17.2163 33.5241 16.8721 33.3822C16.5279 33.2403 16.159 33.1677 15.7867 33.1685ZM15.7867 37.5872C15.4727 37.5872 15.1658 37.4941 14.9048 37.3197C14.6437 37.1452 14.4402 36.8973 14.3201 36.6072C14.1999 36.3172 14.1685 35.998 14.2297 35.69C14.291 35.3821 14.4421 35.0992 14.6642 34.8772C14.8862 34.6552 15.1691 34.504 15.477 34.4427C15.785 34.3815 16.1041 34.4129 16.3942 34.533C16.6843 34.6532 16.9322 34.8567 17.1066 35.1178C17.2811 35.3788 17.3742 35.6857 17.3742 35.9997C17.3742 36.4208 17.207 36.8245 16.9093 37.1223C16.6115 37.42 16.2078 37.5872 15.7867 37.5872Z" fill="white"/>
<path id="Vector_3" d="M27.2179 33.1686C26.6554 33.1636 26.1041 33.3259 25.6341 33.635C25.1641 33.944 24.7965 34.3858 24.5781 34.9042C24.3597 35.4226 24.3003 35.9942 24.4074 36.5464C24.5146 37.0987 24.7834 37.6066 25.1799 38.0057C25.5763 38.4048 26.0824 38.677 26.6339 38.7878C27.1854 38.8987 27.7574 38.8431 28.2773 38.6281C28.7971 38.4131 29.2413 38.0485 29.5535 37.5805C29.8656 37.1125 30.0317 36.5623 30.0304 35.9998C30.0304 35.2521 29.7348 34.5348 29.2078 34.0044C28.6809 33.474 27.9656 33.1735 27.2179 33.1686ZM27.2179 37.5873C26.9029 37.5923 26.5936 37.5034 26.3293 37.332C26.0649 37.1606 25.8576 36.9144 25.7336 36.6248C25.6096 36.3353 25.5746 36.0153 25.6329 35.7057C25.6914 35.3961 25.8406 35.1109 26.0616 34.8864C26.2825 34.6619 26.5653 34.5082 26.8739 34.4449C27.1826 34.3816 27.503 34.4115 27.7946 34.5309C28.0861 34.6503 28.3355 34.8537 28.5111 35.1153C28.6866 35.3769 28.7804 35.6848 28.7804 35.9998C28.7805 36.4166 28.6167 36.8166 28.3244 37.1136C28.032 37.4106 27.6346 37.5808 27.2179 37.5873Z" fill="white"/>
<path id="Vector_4" d="M22.8115 20.0874C24.5421 20.0874 26.2338 19.5742 27.6727 18.6128C29.1116 17.6513 30.2331 16.2847 30.8955 14.6859C31.5577 13.087 31.731 11.3277 31.3933 9.63034C31.0557 7.93303 30.2224 6.37393 28.9986 5.15022C27.775 3.92651 26.2158 3.09316 24.5185 2.75553C22.8212 2.41791 21.0618 2.5912 19.463 3.25346C17.8641 3.91573 16.4976 5.03723 15.5361 6.47616C14.5746 7.91509 14.0615 9.60684 14.0615 11.3374C14.0615 13.658 14.9833 15.8837 16.6243 17.5246C18.2653 19.1655 20.4908 20.0874 22.8115 20.0874ZM22.8115 3.83741C24.2948 3.83741 25.7449 4.27727 26.9783 5.10138C28.2116 5.9255 29.173 7.09684 29.7406 8.46728C30.3083 9.83771 30.4568 11.3457 30.1674 12.8006C29.878 14.2555 29.1637 15.5918 28.1148 16.6407C27.0659 17.6896 25.7295 18.4039 24.2746 18.6933C22.8198 18.9827 21.3118 18.8342 19.9413 18.2665C18.5709 17.6988 17.3996 16.7375 16.5755 15.5042C15.7513 14.2708 15.3115 12.8208 15.3115 11.3374C15.3115 9.34828 16.1016 7.44065 17.5082 6.03411C18.9147 4.62758 20.8224 3.83741 22.8115 3.83741Z" fill="white"/>
<path id="Vector_5" d="M27.1929 13.5248H19.9366L21.2804 12.1811C21.3389 12.123 21.3854 12.0538 21.4172 11.9777C21.4489 11.9015 21.4653 11.8198 21.4653 11.7373C21.4653 11.6548 21.4489 11.5731 21.4172 11.4969C21.3854 11.4208 21.3389 11.3517 21.2804 11.2936C21.1633 11.1772 21.0049 11.1118 20.8398 11.1118C20.6746 11.1118 20.5162 11.1772 20.3991 11.2936L17.9866 13.7061C17.9281 13.7642 17.8816 13.8333 17.8498 13.9094C17.8181 13.9856 17.8018 14.0673 17.8018 14.1498C17.8018 14.2323 17.8181 14.314 17.8498 14.3902C17.8816 14.4663 17.9281 14.5354 17.9866 14.5936L20.3991 17.0061C20.5162 17.1225 20.6746 17.1878 20.8398 17.1878C21.0049 17.1878 21.1633 17.1225 21.2804 17.0061C21.3394 16.9482 21.3864 16.8792 21.4186 16.803C21.4508 16.7268 21.4675 16.645 21.4679 16.5623C21.4675 16.4796 21.4508 16.3978 21.4186 16.3216C21.3864 16.2455 21.3394 16.1764 21.2804 16.1186L19.9366 14.7748H27.1929C27.3586 14.7748 27.5176 14.709 27.6348 14.5918C27.752 14.4746 27.8179 14.3156 27.8179 14.1498C27.8179 13.9841 27.752 13.8251 27.6348 13.7079C27.5176 13.5907 27.3586 13.5248 27.1929 13.5248Z" fill="white"/>
<path id="Vector_6" d="M18.4238 9.1498H25.6551L24.3113 10.4936C24.2523 10.5514 24.2053 10.6205 24.1731 10.6966C24.141 10.7728 24.1242 10.8546 24.1238 10.9373C24.1238 11.1031 24.1897 11.2621 24.3069 11.3792C24.4241 11.4965 24.5831 11.5623 24.7488 11.5623C24.8311 11.5628 24.9126 11.547 24.9888 11.5159C25.065 11.4848 25.1342 11.439 25.1926 11.3811L27.6051 8.96855C27.6637 8.91049 27.7102 8.8413 27.7419 8.76518C27.7736 8.68899 27.79 8.6073 27.79 8.5248C27.79 8.4423 27.7736 8.36062 27.7419 8.28443C27.7102 8.2083 27.6637 8.13918 27.6051 8.08105L25.2176 5.66856C25.1005 5.55215 24.9421 5.48682 24.777 5.48682C24.6118 5.48682 24.4535 5.55215 24.3363 5.66856C24.2778 5.72667 24.2313 5.79579 24.1995 5.87195C24.1678 5.94812 24.1515 6.0298 24.1515 6.11231C24.1515 6.19482 24.1678 6.27651 24.1995 6.35267C24.2313 6.42883 24.2778 6.49796 24.3363 6.55606L25.6551 7.8998H18.4238C18.2581 7.8998 18.0991 7.96568 17.9819 8.08287C17.8647 8.20005 17.7988 8.35905 17.7988 8.5248C17.7988 8.69055 17.8647 8.84955 17.9819 8.96674C18.0991 9.08399 18.2581 9.1498 18.4238 9.1498Z" fill="white"/>
</g>
</svg>
