<svg width="44" height="44" viewBox="0 0 44 44" fill="none" xmlns="http://www.w3.org/2000/svg">
<g id="80132991637656759 1">
<path id="Vector" d="M34.7656 4.69873V2.34717C34.7656 1.94404 34.4969 1.67529 34.0938 1.67529H9.90625C9.50313 1.67529 9.23438 1.94404 9.23438 2.34717V4.69873L2.1125 10.544C1.91094 10.6784 1.84375 10.88 1.84375 11.0815V12.0894C1.84375 13.6347 2.65 14.9784 3.85938 15.7847V36.6128H2.51562C2.1125 36.6128 1.84375 36.8815 1.84375 37.2847V39.9722C1.84375 40.3753 2.1125 40.644 2.51562 40.644H30.7344H36.7812C39.7375 40.644 42.1562 38.2253 42.1562 35.269C42.1562 33.5894 41.35 32.044 40.1406 31.1034V15.7847C41.35 14.9784 42.1562 13.6347 42.1562 12.0894V11.0815C42.1562 10.88 42.0891 10.6784 41.8875 10.544L34.7656 4.69873ZM33.4219 12.0894C33.4219 13.769 32.0781 15.1128 30.3984 15.1128H29.7266C28.0469 15.1128 26.7031 13.769 26.7031 12.0894V5.70654H33.4219V12.0894ZM10.5781 5.70654H17.2969V12.0894C17.2969 13.769 15.9531 15.1128 14.2734 15.1128H13.6016C11.9219 15.1128 10.5781 13.769 10.5781 12.0894V5.70654ZM18.6406 5.70654H25.3594V12.0894C25.3594 13.769 24.0156 15.1128 22.3359 15.1128H21.6641C19.9844 15.1128 18.6406 13.769 18.6406 12.0894V5.70654ZM10.5781 3.01904H33.4219V4.36279H10.5781V3.01904ZM3.1875 11.4175L9.23438 6.44561V12.0894C9.23438 13.769 7.89062 15.1128 6.21094 15.1128C4.53125 15.1128 3.1875 13.769 3.1875 12.0894V11.4175ZM3.1875 37.9565H27.4422C27.5766 38.4269 27.7781 38.8972 28.0469 39.3003H3.1875V37.9565ZM17.9688 36.6128H7.89062V24.1831C7.89062 21.4284 10.175 19.144 12.9297 19.144C15.6844 19.144 17.9688 21.4284 17.9688 24.1831V36.6128ZM40.8125 35.269C40.8125 37.4862 38.9984 39.3003 36.7812 39.3003H35.2359L37.1844 35.8737L39.6031 35.269L39.3344 33.9253L37.4531 34.3956V32.5815H36.1094V35.0675L33.8922 38.9644L31.1375 36.7472L30.3313 37.8222L32.2125 39.3003H30.7344C29.5922 39.3003 28.7188 38.4269 28.7188 37.2847C28.7188 36.1425 29.5922 35.269 30.7344 35.269C31.0703 35.269 31.4062 35.3362 31.7422 35.5378C31.9438 35.6722 32.2125 35.6722 32.4141 35.5378C32.6156 35.4034 32.75 35.2019 32.75 35.0003C32.8844 32.8503 34.6312 31.2378 36.7812 31.2378C38.9984 31.2378 40.8125 33.0519 40.8125 35.269ZM36.1094 29.9612C35.0344 30.0956 34.0266 30.5659 33.2203 31.2378H22V19.144H36.1094V29.9612ZM38.7969 30.2972C38.3937 30.0956 37.9234 30.0284 37.4531 29.9612V18.4722C37.4531 18.069 37.1844 17.8003 36.7812 17.8003H21.3281C20.925 17.8003 20.6562 18.069 20.6562 18.4722V31.9097C20.6562 32.3128 20.925 32.5815 21.3281 32.5815H32.1453C31.8766 33.0519 31.675 33.5222 31.5406 34.0597C31.2719 33.9925 31.0031 33.9253 30.7344 33.9253C29.1219 33.9253 27.7781 35.0675 27.4422 36.6128H19.3125V24.1831C19.3125 20.6894 16.4234 17.8003 12.9297 17.8003C9.43594 17.8003 6.54688 20.6894 6.54688 24.1831V36.6128H5.20312V16.3222C5.53906 16.3894 5.875 16.4565 6.21094 16.4565C7.75625 16.4565 9.1 15.6503 9.90625 14.3737C10.7125 15.5831 12.0562 16.4565 13.6016 16.4565H14.2734C15.8188 16.4565 17.1625 15.6503 17.9688 14.3737C18.775 15.5831 20.1187 16.4565 21.6641 16.4565H22.3359C23.8813 16.4565 25.225 15.6503 26.0312 14.3737C26.8375 15.5831 28.1812 16.4565 29.7266 16.4565H30.3984C31.9438 16.4565 33.2875 15.6503 34.0938 14.3737C34.9 15.5831 36.2438 16.4565 37.7891 16.4565C38.125 16.4565 38.4609 16.3894 38.7969 16.3222V30.2972ZM40.8125 12.0894C40.8125 13.769 39.4688 15.1128 37.7891 15.1128C36.1094 15.1128 34.7656 13.769 34.7656 12.0894V6.44561L40.8125 11.4175V12.0894Z" fill="black"/>
<path id="Vector_2" d="M16.625 27.8784H15.2812V29.2222H16.625V27.8784Z" fill="black"/>
<path id="Vector_3" d="M32.9534 20.6775L24.877 28.7539L25.8271 29.7041L33.9035 21.6277L32.9534 20.6775Z" fill="black"/>
<path id="Vector_4" d="M32.9738 24.6888L28.9355 28.7271L29.8857 29.6772L33.9239 25.639L32.9738 24.6888Z" fill="black"/>
</g>
</svg>
