<svg width="141" height="166" viewBox="0 0 141 166" fill="none" xmlns="http://www.w3.org/2000/svg">
<g id="Group 786">
<g id="Group">
<path id="Vector" d="M59.4335 164.634C59.4335 164.634 5.84643 158.329 0.804791 106.636C-4.23684 54.9425 34.5338 30.0363 70.4653 48.3188C106.397 66.6013 129.547 56.8102 138.239 82.6781C149.27 115.462 122.162 172.83 59.4335 164.634Z" fill="#E7EBFF"/>
</g>
<g id="Group 785">
<path id="Vector_2" d="M14.3633 53.3771C14.3633 66.6492 20.821 77.4152 28.7899 77.4152C31.939 77.4152 41.1375 78.917 43.5122 76.0589C47.1353 71.6943 43.2119 61.4023 43.2119 53.3771C43.2119 46.6002 49.1487 36.4818 46.4408 32.1172C43.8455 27.9263 32.6852 29.3389 28.7899 29.3389C20.8022 29.3389 14.3633 40.1002 14.3633 53.3771Z" fill="#AB854C"/>
<path id="Vector_3" d="M40.2022 77.4152C48.1673 77.4152 54.6242 66.6529 54.6242 53.377C54.6242 40.1011 48.1673 29.3389 40.2022 29.3389C32.2372 29.3389 25.7803 40.1011 25.7803 53.377C25.7803 66.6529 32.2372 77.4152 40.2022 77.4152Z" fill="#FFC444"/>
<path id="Vector_4" d="M35.2275 30.8076C29.7131 34.1867 25.7803 43.0097 25.7803 53.3768C25.7803 61.6508 28.2911 68.9486 32.1113 73.2757" stroke="#7B72F6" stroke-width="2" stroke-linecap="round" stroke-linejoin="round"/>
<path id="Vector_5" d="M36.5242 29.1142C33.4455 29.0814 30.4513 29.3395 28.7899 29.3395C20.8116 29.3395 14.3633 40.1008 14.3633 53.3776C14.3633 66.6545 20.8022 77.4158 28.7805 77.4158C29.5643 77.4158 30.7329 77.5097 32.0657 77.6035" stroke="#7B72F6" stroke-width="2" stroke-linecap="round" stroke-linejoin="round"/>
<path id="Vector_6" d="M27.9773 34.5578C30.1362 31.7419 32.2434 31.2163 32.2434 31.2163L25.2553 31.6856C24.1182 32.2818 23.1052 33.0894 22.2705 34.065C24.1759 34.1917 26.0766 34.3607 27.9773 34.5578Z" fill="#FFC444"/>
<path id="Vector_7" d="M26.0394 67.7336C24.4531 63.7069 23.0123 57.7232 23.4535 49.6933C23.8524 42.3955 25.6264 37.9605 27.4802 35.2385C25.5466 35.0414 23.6131 34.863 21.6795 34.7363C19.4643 37.4583 16.9535 42.358 16.4701 50.8243C16.0008 58.7322 17.5449 64.1481 19.1874 67.5835C21.4683 67.6617 23.7523 67.7117 26.0394 67.7336Z" fill="#FFC444"/>
<path id="Vector_8" d="M19.5527 68.311C21.0639 71.2067 22.5516 72.4551 22.5516 72.4551L29.5397 74.0319C29.5397 74.0319 27.9112 72.1922 26.3343 68.4471C24.0722 68.4346 21.8117 68.3893 19.5527 68.311Z" fill="#FFC444"/>
<path id="Vector_9" d="M32.8594 35.901C32.8594 35.901 33.4313 26.4471 44.8914 25.5893C44.8914 25.5893 82.685 24.3941 99.0129 26.058C99.0129 26.058 106.605 26.2971 105.457 36.1119L105.006 140.006C105.006 140.006 106.119 149.821 92.8978 152.451C85.4364 153.937 48.8945 146.47 48.8945 146.47C48.8945 146.47 38.988 148.143 39.2356 136.894C39.4878 123.747 32.8594 35.901 32.8594 35.901Z" fill="#B2C3EE"/>
<path id="Vector_10" d="M31.6582 43.2633C31.6582 43.2633 30.0625 30.1602 39.9697 30.1602C39.9697 30.1602 78.397 29.2215 95.4189 30.8829C95.4189 30.8829 103.327 31.1222 102.13 40.9496L101.661 144.973C101.661 144.973 101.661 152.881 93.7482 152.641C85.8356 152.402 43.6726 151.928 43.6726 151.928C43.6726 151.928 32.8784 153.125 33.1084 141.856C33.3806 128.669 31.6582 43.2633 31.6582 43.2633Z" fill="#B2C3EE"/>
<path id="Vector_11" d="M34.5014 44.4778C34.5014 44.4778 33.0325 32.6889 42.1418 32.6889C42.1418 32.6889 77.4716 31.8256 93.1138 33.3365C93.1138 33.3365 100.388 33.5523 99.2852 42.3928L98.8441 134.449C98.8441 134.449 98.8441 141.567 91.5744 141.337C84.3048 141.108 45.0797 140.258 45.0797 140.258C45.0797 140.258 35.6043 141.769 35.8249 131.634C36.083 119.78 34.5014 44.4778 34.5014 44.4778Z" fill="#7B72F6"/>
<path id="Vector_12" d="M101.947 80.569L101.651 144.973C101.651 144.973 101.651 152.881 93.7388 152.641C85.8262 152.402 43.6632 151.928 43.6632 151.928C43.6632 151.928 32.869 153.125 33.099 141.856C33.3806 128.669 31.6582 43.2633 31.6582 43.2633C31.6582 43.2633 30.0625 30.1602 39.9697 30.1602C39.9697 30.1602 78.397 29.2215 95.4189 30.8829C96.765 30.9861 98.0601 31.4426 99.1734 32.2064" stroke="#7B72F6" stroke-width="2" stroke-linecap="round" stroke-linejoin="round"/>
<path id="Vector_13" d="M105.104 27.0864C105.104 27.0864 104.217 26.1478 101.819 26.0868C99.4208 26.0258 65.2924 24.5333 48.491 25.5095C48.491 25.5095 37.8236 25.2842 35.2705 31.0662" stroke="#7B72F6" stroke-width="2" stroke-linecap="round" stroke-linejoin="round"/>
<path id="Vector_14" d="M59.4357 31.7418C59.4357 31.7418 57.9808 38.9645 66.6443 38.0541C72.3559 37.4768 70.549 31.1411 70.549 31.1411L59.4357 31.7418Z" fill="#B2C3EE"/>
<path id="Vector_15" d="M34.5014 44.4779C34.5014 44.4779 33.0325 32.6891 42.1418 32.6891C42.1418 32.6891 49.6508 32.5054 59.2858 32.4595C59.2858 32.4595 58.4973 37.8602 65.4807 37.9153C72.1872 37.9658 70.7229 32.4732 70.7229 32.4732C79.025 32.5513 87.3882 32.7855 93.1138 33.3366C93.1138 33.3366 100.388 33.5525 99.2852 42.393L98.8441 134.449C98.8441 134.449 98.8441 141.567 91.5744 141.338C84.3048 141.108 45.0797 140.258 45.0797 140.258C45.0797 140.258 35.6043 141.769 35.8249 131.634C36.083 119.781 34.5014 44.4779 34.5014 44.4779Z" stroke="#7B72F6" stroke-width="2" stroke-linecap="round" stroke-linejoin="round"/>
<path id="Vector_16" d="M65.3679 35.4212C66.6121 35.4212 67.6206 34.5387 67.6206 33.4501C67.6206 32.3615 66.6121 31.479 65.3679 31.479C64.1238 31.479 63.1152 32.3615 63.1152 33.4501C63.1152 34.5387 64.1238 35.4212 65.3679 35.4212Z" fill="#714AAF"/>
<path id="Vector_17" d="M65.3679 35.4212C66.6121 35.4212 67.6206 34.5387 67.6206 33.4501C67.6206 32.3615 66.6121 31.479 65.3679 31.479C64.1238 31.479 63.1152 32.3615 63.1152 33.4501C63.1152 34.5387 64.1238 35.4212 65.3679 35.4212Z" stroke="#7B72F6" stroke-width="2" stroke-linecap="round" stroke-linejoin="round"/>
<path id="Vector_18" d="M57.7344 145.127C57.7344 145.127 72.2362 145.512 79.8249 145.662C82.6831 145.719 83.2087 146.23 83.2134 146.756C83.2134 147.16 82.5141 147.971 79.7686 147.915C72.0297 147.765 65.5719 147.756 57.7532 147.446C52.7597 147.263 54.4962 144.63 57.7344 145.127Z" stroke="#7B72F6" stroke-width="2" stroke-linecap="round" stroke-linejoin="round"/>
<path id="Vector_19" d="M87.1523 56.0803C87.1523 69.3571 93.6101 80.1185 101.574 80.1185C104.723 80.1185 113.927 81.6203 116.297 78.7668C119.924 74.3975 115.996 64.1055 115.996 56.0803C115.996 49.3034 121.933 39.1851 119.225 34.8205C116.63 30.6342 105.474 32.0421 101.574 32.0421C93.6101 32.0421 87.1523 42.8035 87.1523 56.0803Z" fill="#AB854C"/>
<path id="Vector_20" d="M112.994 80.1188C120.959 80.1188 127.416 69.3565 127.416 56.0806C127.416 42.8047 120.959 32.0425 112.994 32.0425C105.029 32.0425 98.5723 42.8047 98.5723 56.0806C98.5723 69.3565 105.029 80.1188 112.994 80.1188Z" fill="#FFC34A"/>
<path id="Vector_21" d="M114.119 71.8308C119.337 71.8308 123.566 64.7792 123.566 56.0807C123.566 47.3821 119.337 40.3306 114.119 40.3306C108.902 40.3306 104.672 47.3821 104.672 56.0807C104.672 64.7792 108.902 71.8308 114.119 71.8308Z" fill="#7B72F6"/>
<path id="Vector_22" d="M115.021 71.8308C120.239 71.8308 124.469 64.7792 124.469 56.0807C124.469 47.3821 120.239 40.3306 115.021 40.3306C109.804 40.3306 105.574 47.3821 105.574 56.0807C105.574 64.7792 109.804 71.8308 115.021 71.8308Z" fill="#B2C3EE"/>
<path id="Vector_23" d="M104.672 56.0807C104.672 64.777 109.801 71.8308 115.02 71.8308C120.239 71.8308 124.467 64.7911 124.467 56.0807C124.467 47.3702 120.244 40.3306 115.02 40.3306C109.797 40.3306 104.672 47.3843 104.672 56.0807Z" stroke="#7B72F6" stroke-width="2" stroke-linecap="round" stroke-linejoin="round"/>
<path id="Vector_24" d="M100.708 37.979C103.153 33.957 105.931 33.2437 105.931 33.2437L98.9478 33.713C97.5111 34.6062 96.2196 35.7141 95.1182 36.9981C96.9719 37.383 98.8351 37.7068 100.708 37.979Z" fill="#FFC444"/>
<path id="Vector_25" d="M99.0586 41.4519C99.4056 40.4925 99.8245 39.5606 100.312 38.6642C98.3813 38.3858 96.4633 38.0447 94.5579 37.6411C93.5859 38.826 92.7309 40.1022 92.0049 41.4519H99.0586Z" fill="#FFC444"/>
<path id="Vector_26" d="M97.1447 51.7251C97.2697 48.4798 97.8301 45.266 98.8108 42.1699H91.635C90.1292 45.241 89.176 48.5533 88.8191 51.9551C87.8805 59.8818 89.8188 65.903 91.9401 69.9203C94.6011 70.094 97.2667 70.1831 99.9184 70.2301C98.2382 66.1987 96.6848 60.0648 97.1447 51.7251Z" fill="#FFC444"/>
<path id="Vector_27" d="M93.8584 73.0459C94.5596 74.0512 95.3582 74.9849 96.2425 75.8336L103.226 76.0589C102.475 75.1336 101.82 74.1352 101.269 73.0788L93.8584 73.0459Z" fill="#FFC444"/>
<path id="Vector_28" d="M100.899 72.3655C100.674 71.929 100.43 71.4597 100.223 70.9576C97.5952 70.9153 94.9623 70.8355 92.3389 70.6807C92.6862 71.2876 93.0288 71.8414 93.3667 72.342L100.899 72.3655Z" fill="#FFC444"/>
<path id="Vector_29" d="M118.38 33.8634C114.771 30.8645 105.141 32.0425 101.574 32.0425C93.596 32.0425 87.1523 42.8038 87.1523 56.0806C87.1523 69.3575 93.6101 80.1188 101.574 80.1188C104.019 80.1188 110.097 81.0199 113.814 80.0953" stroke="#7B72F6" stroke-width="2" stroke-linecap="round" stroke-linejoin="round"/>
<path id="Vector_30" d="M112.994 80.1188C120.959 80.1188 127.416 69.3565 127.416 56.0806C127.416 42.8047 120.959 32.0425 112.994 32.0425C105.029 32.0425 98.5723 42.8047 98.5723 56.0806C98.5723 69.3565 105.029 80.1188 112.994 80.1188Z" stroke="#7B72F6" stroke-width="2" stroke-linecap="round" stroke-linejoin="round"/>
<path id="Vector_31" d="M119.213 52.9636C118.851 41.6673 114.717 2.80355 75.0598 1.2642C44.9347 0.0768452 32.5073 15.6345 27.373 29.1366C27.8582 29.0535 28.3497 29.0127 28.842 29.0146C30.6911 29.0146 34.1687 28.7002 37.5947 28.8128C41.4055 17.0143 50.2661 4.11293 71.0238 3.27286C104.861 1.90247 110.404 42.3478 111.277 53.0528C111.089 53.8553 111.474 55.6574 111.474 56.5679C111.474 60.5101 112.882 62.7628 115.266 62.7628C117.65 62.7628 119.246 60.9607 119.246 57.0185C119.227 56.0704 119.414 53.7755 119.213 52.9636Z" fill="#7B72F6"/>
<path id="Vector_32" d="M38.1014 27.8371C41.9216 16.0386 50.2565 4.11343 71.0189 3.27336C104.856 1.90297 110.399 42.3483 111.272 53.0533C111.084 53.8558 111.469 55.658 111.469 56.5684C111.469 60.5106 112.877 62.7633 115.261 62.7633C117.645 62.7633 119.241 60.9612 119.241 57.019C119.241 56.0803 119.428 53.776 119.241 52.9453C118.879 41.649 114.745 2.78528 75.0878 1.24593C44.9627 0.0773475 32.5025 15.9589 27.3447 29.461" stroke="#7B72F6" stroke-width="2" stroke-linecap="round" stroke-linejoin="round"/>
<path id="Vector_33" d="M73.7079 3.21746C73.7079 3.21746 45.0142 1.24636 32.5352 19.4979" stroke="#7B72F6" stroke-width="2" stroke-linecap="round" stroke-linejoin="round"/>
</g>
</g>
</svg>
